<svg width="709" height="299" viewBox="0 0 709 299" fill="none" xmlns="http://www.w3.org/2000/svg">
<path d="M180.478 269.049C180.261 269.657 179.857 270.127 179.381 270.324C179.14 270.424 178.677 270.429 170.467 270.418L161.808 270.406L161.604 270.406L161.285 270.406L160.808 270.406L160.467 270.406L160.194 270.406L159.854 270.406L147.672 270.406L135.49 270.406L135.103 270.406L134.558 270.413L133.546 270.409C133.546 270.409 133.194 270.406 133.114 270.406L132.49 270.406L126.217 270.406L119.944 270.406L119.636 270.217C119.229 269.968 118.88 269.516 118.735 269.051L118.626 268.7L118.614 259.653C118.603 251.74 118.61 250.567 118.67 250.307C118.82 249.652 119.129 249.202 119.643 248.887L119.944 248.702L125.649 248.673L131.353 248.643L131.399 34.7812L131.507 34.4283C131.656 33.9415 131.976 33.3311 132.231 33.0462C132.519 32.724 132.988 32.4269 133.387 32.3133C133.675 32.2314 134.137 32.2216 137.058 32.2358L140.399 32.2519L140.978 32.2519L141.409 32.2519L141.819 32.2519L142.341 32.2519L142.637 32.2519L142.99 32.2519L154.353 32.2519C165.336 32.2519 165.728 32.2556 166.027 32.3625C166.375 32.4865 166.895 32.9002 167.155 33.259C167.372 33.5593 167.539 33.9142 167.687 34.3916L167.808 34.7812L167.854 248.643L173.558 248.673C178.801 248.7 179.278 248.71 179.456 248.803C179.918 249.043 180.305 249.526 180.478 250.08L180.581 250.408L180.581 259.584L180.581 268.759L180.478 269.049Z" fill="#D2DEFD"/>
<path d="M139.113 1.08613C139.681 0.781768 140.296 0.70593 140.781 0.880386C141.027 0.968671 141.372 1.27623 147.443 6.81034L153.846 12.6472L153.997 12.7849L154.233 12.9991L154.586 13.3203L154.839 13.5498L155.041 13.7333L155.293 13.9628L164.312 22.1622L173.331 30.3615L173.617 30.6216L174.025 30.9839L174.772 31.6677C174.772 31.6677 175.03 31.9067 175.09 31.9606L175.552 32.3808L180.196 36.6028L184.84 40.8249L184.941 41.1719C185.075 41.631 185.03 42.2001 184.826 42.6415L184.671 42.9749L178.605 49.6817C173.301 55.5469 172.508 56.4103 172.289 56.5628C171.738 56.9465 171.208 57.072 170.615 56.9593L170.269 56.8933L166.026 53.0754L161.782 49.2576L46.1453 192.845L45.8282 193.033C45.3909 193.293 44.7444 193.53 44.3644 193.569C43.9347 193.614 43.3882 193.518 43.0163 193.333C42.7479 193.2 42.3995 192.897 40.2467 190.92L37.7841 188.66L37.3555 188.27L37.0358 187.979L36.733 187.704L36.346 187.352L36.1272 187.153L35.8659 186.916L27.4528 179.267C19.3219 171.875 19.0344 171.609 18.8843 171.328C18.7103 171.002 18.6027 170.345 18.6512 169.905C18.6919 169.536 18.8067 169.161 19.0176 168.708L19.1897 168.338L134.759 24.6901L130.556 20.8287C126.692 17.2796 126.346 16.9508 126.276 16.7625C126.095 16.274 126.133 15.6561 126.377 15.1293L126.521 14.8173L132.682 8.0241L138.842 1.23095L139.113 1.08613Z" fill="#D2DEFD"/>
<path d="M201.199 154.431C201.807 154.648 202.276 155.053 202.473 155.53C202.573 155.771 202.578 156.234 202.567 164.455L202.555 173.125L202.555 173.33L202.555 173.648L202.555 174.126L202.555 174.467L202.555 174.741L202.555 175.082L202.555 187.279L202.555 199.477L202.555 199.863L202.561 200.41L202.558 201.423C202.558 201.423 202.555 201.775 202.555 201.855L202.555 202.48L202.555 208.761L202.555 215.042L202.366 215.35C202.117 215.758 201.666 216.108 201.202 216.252L200.851 216.362L191.815 216.374C183.912 216.384 182.741 216.377 182.481 216.318C181.827 216.167 181.378 215.858 181.063 215.343L180.879 215.042L180.849 209.33L180.82 203.618L20.2006 203.618L19.8481 203.51C19.3619 203.36 18.7524 203.04 18.4677 202.785C18.1459 202.496 17.8493 202.027 17.7359 201.627C17.654 201.339 17.6443 200.876 17.6584 197.952L17.6745 194.607L17.6745 194.027L17.6745 193.595L17.6745 193.185L17.6745 192.662L17.6745 192.366L17.6745 192.013L17.6745 180.634C17.6745 169.638 17.6782 169.246 17.785 168.946C17.9088 168.598 18.322 168.077 18.6803 167.817C18.9803 167.599 19.3347 167.432 19.8115 167.284L20.2006 167.163L180.82 167.072L180.849 161.36C180.876 156.11 180.887 155.632 180.979 155.454C181.219 154.992 181.701 154.604 182.254 154.431L182.582 154.328L191.746 154.328L200.91 154.328L201.199 154.431Z" fill="#D2DEFD"/>
<path d="M686.907 269.049C686.69 269.657 686.286 270.127 685.81 270.324C685.569 270.424 685.107 270.429 676.897 270.418L668.237 270.406L668.033 270.406L667.715 270.406L667.237 270.406L666.896 270.406L666.624 270.406L666.283 270.406L654.101 270.406L641.919 270.406L641.533 270.406L640.987 270.413L639.975 270.409C639.975 270.409 639.624 270.406 639.543 270.406L638.919 270.406L632.646 270.406L626.373 270.406L626.066 270.217C625.658 269.968 625.309 269.516 625.165 269.051L625.055 268.7L625.043 259.653C625.033 251.74 625.04 250.567 625.099 250.307C625.25 249.652 625.558 249.202 626.072 248.887L626.373 248.702L632.078 248.673L637.783 248.643L637.828 34.7812L637.936 34.4283C638.086 33.9415 638.405 33.3311 638.66 33.0462C638.948 32.724 639.417 32.4269 639.817 32.3133C640.105 32.2314 640.567 32.2216 643.487 32.2358L646.828 32.2519L647.407 32.2519L647.839 32.2519L648.248 32.2519L648.771 32.2519L649.066 32.2519L649.419 32.2519L660.783 32.2519C671.765 32.2519 672.157 32.2556 672.457 32.3625C672.804 32.4865 673.325 32.9002 673.584 33.259C673.802 33.5593 673.969 33.9142 674.117 34.3916L674.237 34.7812L674.283 248.643L679.987 248.673C685.231 248.7 685.708 248.71 685.886 248.803C686.348 249.043 686.734 249.526 686.908 250.08L687.01 250.408L687.01 259.584L687.01 268.759L686.907 269.049Z" fill="#D2DEFD"/>
<path d="M645.542 1.08613C646.111 0.781768 646.726 0.70593 647.211 0.880386C647.456 0.968671 647.801 1.27623 653.872 6.81034L660.275 12.6472L660.427 12.7849L660.662 12.9991L661.016 13.3203L661.268 13.5498L661.47 13.7333L661.722 13.9628L670.741 22.1622L679.76 30.3615L680.046 30.6216L680.454 30.9839L681.201 31.6677C681.201 31.6677 681.459 31.9067 681.519 31.9606L681.981 32.3808L686.625 36.6028L691.269 40.8249L691.371 41.1719C691.505 41.631 691.46 42.2001 691.255 42.6415L691.1 42.9749L685.035 49.6817C679.73 55.5469 678.938 56.4103 678.718 56.5628C678.168 56.9465 677.637 57.072 677.045 56.9593L676.698 56.8933L672.455 53.0754L668.212 49.2576L552.575 192.845L552.258 193.033C551.82 193.293 551.174 193.53 550.794 193.569C550.364 193.614 549.818 193.518 549.446 193.333C549.177 193.2 548.829 192.897 546.676 190.92L544.213 188.66L543.785 188.27L543.465 187.979L543.162 187.704L542.775 187.352L542.557 187.153L542.295 186.916L533.882 179.267C525.751 171.875 525.464 171.609 525.314 171.328C525.14 171.002 525.032 170.345 525.081 169.905C525.121 169.536 525.236 169.161 525.447 168.708L525.619 168.338L641.189 24.6901L636.985 20.8287C633.121 17.2796 632.775 16.9508 632.706 16.7625C632.525 16.274 632.563 15.6561 632.806 15.1293L632.951 14.8173L639.111 8.0241L645.271 1.23095L645.542 1.08613Z" fill="#D2DEFD"/>
<path d="M707.628 154.431C708.236 154.648 708.705 155.053 708.902 155.53C709.002 155.771 709.007 156.234 708.996 164.455L708.984 173.125L708.984 173.33L708.984 173.648L708.984 174.126L708.984 174.467L708.984 174.741L708.984 175.082L708.984 187.279L708.984 199.477L708.984 199.863L708.991 200.41L708.987 201.423C708.987 201.423 708.984 201.775 708.984 201.855L708.984 202.48L708.984 208.761L708.984 215.042L708.796 215.35C708.546 215.758 708.095 216.108 707.631 216.252L707.281 216.362L698.244 216.374C690.342 216.384 689.171 216.377 688.91 216.318C688.257 216.167 687.807 215.858 687.492 215.343L687.308 215.042L687.279 209.33L687.249 203.618L526.63 203.618L526.277 203.51C525.791 203.36 525.182 203.04 524.897 202.785C524.575 202.496 524.279 202.027 524.165 201.627C524.083 201.339 524.074 200.876 524.088 197.952L524.104 194.607L524.104 194.027L524.104 193.595L524.104 193.185L524.104 192.662L524.104 192.366L524.104 192.013L524.104 180.634C524.104 169.638 524.108 169.246 524.214 168.946C524.338 168.598 524.751 168.077 525.11 167.817C525.41 167.599 525.764 167.432 526.241 167.284L526.63 167.163L687.249 167.072L687.279 161.36C687.306 156.11 687.316 155.632 687.408 155.454C687.648 154.992 688.13 154.604 688.684 154.431L689.012 154.328L698.175 154.328L707.339 154.328L707.628 154.431Z" fill="#D2DEFD"/>
<g filter="url(#filter0_b)">
<path fill-rule="evenodd" clip-rule="evenodd" d="M373.422 12.6924L482.852 74.6104H482.853C486.064 76.4311 488.736 79.0714 490.595 82.2621C492.455 85.4529 493.437 89.0802 493.441 92.7745V216.231C493.437 219.926 492.455 223.553 490.595 226.744C488.735 229.935 486.063 232.576 482.852 234.396L373.422 296.314C370.29 298.075 366.758 299 363.165 299C359.573 299 356.041 298.075 352.909 296.314L243.479 234.398C240.268 232.577 237.596 229.936 235.736 226.745C233.876 223.554 232.895 219.926 232.892 216.231V92.7745C232.895 89.0802 233.877 85.4529 235.737 82.2621C237.597 79.0714 240.268 76.4311 243.479 74.6104L352.909 12.6924C356.041 10.9322 359.573 10.0078 363.165 10.0078C366.758 10.0078 370.289 10.9322 373.422 12.6924ZM362.981 234.903C407.329 234.903 443.279 199.158 443.279 155.065C443.279 110.971 407.329 75.2266 362.981 75.2266C318.633 75.2266 282.682 110.971 282.682 155.065C282.682 199.158 318.633 234.903 362.981 234.903Z" fill="#D2DEFD"/>
</g>
<defs>
<filter id="filter0_b" x="212.892" y="-9.99219" width="300.549" height="328.992" filterUnits="userSpaceOnUse" color-interpolation-filters="sRGB">
<feFlood flood-opacity="0" result="BackgroundImageFix"/>
<feGaussianBlur in="BackgroundImage" stdDeviation="10"/>
<feComposite in2="SourceAlpha" operator="in" result="effect1_backgroundBlur"/>
<feBlend mode="normal" in="SourceGraphic" in2="effect1_backgroundBlur" result="shape"/>
</filter>
</defs>
</svg>
