<svg width="106" height="106" viewBox="0 0 106 106" fill="none" xmlns="http://www.w3.org/2000/svg">
<g clip-path="url(#clip0)">
<path d="M48.574 16.2662L46.9573 14.6494C46.3933 14.0855 46.3933 13.1708 46.9573 12.6068C47.5213 12.0428 48.4359 12.0428 48.9999 12.6068L52.8809 16.4878C53.4449 17.0518 53.4449 17.9665 52.8809 18.5305L48.9999 22.4115C48.4359 22.9754 47.5213 22.9754 46.9573 22.4115C46.3933 21.8475 46.3933 20.9328 46.9573 20.3688L48.081 19.2451C40.8334 20.2949 34.1152 23.6442 28.8797 28.8797C15.5797 42.1797 15.5797 63.8203 28.8797 77.1203C42.1798 90.4204 63.8203 90.4204 77.1203 77.1203C90.4204 63.8203 90.4204 42.1797 77.1203 28.8797C76.1367 27.8961 75.087 26.9658 74.0002 26.1146C73.3734 25.623 73.2617 24.7149 73.7537 24.0868C74.2454 23.4588 75.1534 23.3483 75.7814 23.8403C76.9596 24.7632 78.0972 25.7713 79.163 26.8371C86.1514 33.8254 90.0001 43.117 90 53C90.0001 62.883 86.1514 72.1746 79.163 79.163C72.1746 86.1513 62.883 90.0001 53 90C43.117 90.0001 33.8255 86.1513 26.8371 79.163C19.8487 72.1746 16 62.883 16.0001 53C16 43.117 19.8487 33.8254 26.8371 26.8371C32.7343 20.9399 40.3658 17.2486 48.574 16.2662Z" fill="url(#paint0_linear)"/>
<path d="M78.8242 57.3448C79.6026 57.5198 80.0915 58.2926 79.9169 59.0707C78.566 65.0848 75.1695 70.5456 70.353 74.4472C65.4651 78.4068 59.3023 80.5874 52.9998 80.5875C45.3941 80.5875 38.4972 77.4936 33.5017 72.4981C28.5062 67.5027 25.4124 60.606 25.4124 53C25.4124 37.7883 37.7881 25.4125 52.9997 25.4126C59.2924 25.4127 65.4476 27.5872 70.3317 31.5359C75.1439 35.4258 78.5437 40.8737 79.9045 46.8748C80.081 47.6528 79.5932 48.4263 78.8153 48.6028C78.0373 48.7793 77.2637 48.2915 77.0873 47.5137C74.5219 36.2018 64.6171 28.3014 52.9998 28.3014C39.3809 28.3014 28.3013 39.3811 28.3013 53C28.3011 66.6189 39.3809 77.6988 52.9998 77.6986C64.4566 77.6986 74.5915 69.5982 77.0982 58.4376C77.2732 57.6594 78.0459 57.1701 78.8242 57.3448Z" fill="url(#paint1_linear)"/>
<path d="M38.6849 40.7606L37.4255 39.5011C36.8615 38.9372 36.8615 38.0225 37.4255 37.4585C37.9894 36.8945 38.9041 36.8945 39.4681 37.4585L40.7276 38.718C41.2916 39.282 41.2916 40.1967 40.7276 40.7606C40.1636 41.3246 39.249 41.3247 38.6849 40.7606Z" fill="url(#paint2_linear)"/>
<path d="M68.5746 68.5415C68.0107 69.1055 67.096 69.1055 66.532 68.5415L65.2725 67.282C64.7085 66.7181 64.7085 65.8034 65.2725 65.2394C65.8365 64.6754 66.7512 64.6754 67.3151 65.2394L68.5746 66.4989C69.1386 67.0629 69.1387 67.9774 68.5746 68.5415Z" fill="url(#paint3_linear)"/>
<path d="M65.2394 38.6849L66.4989 37.4254C67.0629 36.8614 67.9776 36.8614 68.5415 37.4254C69.1055 37.9894 69.1055 38.9041 68.5415 39.468L67.2821 40.7275C66.7181 41.2915 65.8034 41.2915 65.2394 40.7275C64.6754 40.1636 64.6754 39.2489 65.2394 38.6849Z" fill="url(#paint4_linear)"/>
<path d="M40.7607 67.3151L39.5012 68.5746C38.9372 69.1386 38.0225 69.1386 37.4585 68.5746C36.8946 68.0107 36.8946 67.096 37.4585 66.532L38.718 65.2725C39.282 64.7085 40.1967 64.7085 40.7607 65.2725C41.3246 65.8365 41.3247 66.7511 40.7607 67.3151Z" fill="url(#paint5_linear)"/>
<path d="M64.6831 51.5556C65.4807 51.5558 66.1272 52.2023 66.1275 53C66.1275 53.7977 65.4808 54.4444 64.6831 54.4445L57.7604 54.4445C57.5313 55.204 57.1176 55.9194 56.5185 56.5185C54.5784 58.4586 51.4217 58.4586 49.4816 56.5185C47.5415 54.5784 47.5415 51.4217 49.4816 49.4816C50.0807 48.8825 50.7962 48.4689 51.5556 48.2397L51.5556 34.2716C51.5556 33.4739 52.2023 32.8272 53.0001 32.8271C53.7977 32.8273 54.4442 33.4738 54.4445 34.2716L54.4445 48.2398C55.2041 48.4688 55.9194 48.8825 56.5185 49.4816C57.1176 50.0807 57.5312 50.7961 57.7604 51.5556L64.6831 51.5556ZM51.5243 51.5242C50.7105 52.338 50.7105 53.662 51.5243 54.4758C52.3381 55.2896 53.6621 55.2896 54.4759 54.4758C55.2897 53.662 55.2897 52.338 54.4759 51.5242C53.6621 50.7104 52.3381 50.7104 51.5243 51.5242Z" fill="url(#paint6_linear)"/>
<path d="M77.6996 53C77.6986 52.619 77.8529 52.2464 78.1215 51.9778C78.3901 51.7092 78.7618 51.5559 79.1438 51.5559C79.5236 51.556 79.8956 51.7092 80.1651 51.9787C80.4337 52.2473 80.5879 52.6201 80.5879 53C80.5878 53.3798 80.4337 53.7527 80.1651 54.0213C79.8955 54.2909 79.5237 54.4441 79.1438 54.4441C78.7639 54.444 78.3911 54.2899 78.1224 54.0213C77.8529 53.7518 77.6997 53.3798 77.6996 53Z" fill="url(#paint7_linear)"/>
<path d="M69.0367 22.8139C68.767 22.5441 68.6119 22.1723 68.6129 21.7915C68.6129 21.4116 68.7661 21.0396 69.0356 20.7701C69.3042 20.5015 69.677 20.3473 70.057 20.3474C70.4368 20.3474 70.8097 20.5015 71.0794 20.7712C71.348 21.0398 71.5022 21.4126 71.5021 21.7924C71.5021 22.1724 71.348 22.5453 71.0794 22.8139C70.8098 23.0835 70.438 23.2367 70.058 23.2366C69.6772 23.2376 69.3054 23.0825 69.0367 22.8139Z" fill="url(#paint8_linear)"/>
</g>
<defs>
<linearGradient id="paint0_linear" x1="79.163" y1="26.8371" x2="26.8371" y2="79.163" gradientUnits="userSpaceOnUse">
<stop stop-color="#497AF0"/>
<stop offset="1" stop-color="#1449C8"/>
</linearGradient>
<linearGradient id="paint1_linear" x1="72.51" y1="33.4979" x2="33.5058" y2="72.5022" gradientUnits="userSpaceOnUse">
<stop stop-color="#497AF0"/>
<stop offset="1" stop-color="#1449C8"/>
</linearGradient>
<linearGradient id="paint2_linear" x1="40.0978" y1="38.0883" x2="38.0552" y2="40.1309" gradientUnits="userSpaceOnUse">
<stop stop-color="#497AF0"/>
<stop offset="1" stop-color="#1449C8"/>
</linearGradient>
<linearGradient id="paint3_linear" x1="67.9449" y1="65.8691" x2="65.9022" y2="67.9118" gradientUnits="userSpaceOnUse">
<stop stop-color="#497AF0"/>
<stop offset="1" stop-color="#1449C8"/>
</linearGradient>
<linearGradient id="paint4_linear" x1="68.5415" y1="37.4254" x2="65.2394" y2="40.7275" gradientUnits="userSpaceOnUse">
<stop stop-color="#497AF0"/>
<stop offset="1" stop-color="#1449C8"/>
</linearGradient>
<linearGradient id="paint5_linear" x1="40.7607" y1="65.2725" x2="37.4585" y2="68.5746" gradientUnits="userSpaceOnUse">
<stop stop-color="#497AF0"/>
<stop offset="1" stop-color="#1449C8"/>
</linearGradient>
<linearGradient id="paint6_linear" x1="61.6242" y1="40.8532" x2="47.7203" y2="54.7571" gradientUnits="userSpaceOnUse">
<stop stop-color="#497AF0"/>
<stop offset="1" stop-color="#1449C8"/>
</linearGradient>
<linearGradient id="paint7_linear" x1="80.1646" y1="51.9782" x2="78.122" y2="54.0209" gradientUnits="userSpaceOnUse">
<stop stop-color="#497AF0"/>
<stop offset="1" stop-color="#1449C8"/>
</linearGradient>
<linearGradient id="paint8_linear" x1="71.0788" y1="20.7707" x2="69.0362" y2="22.8133" gradientUnits="userSpaceOnUse">
<stop stop-color="#497AF0"/>
<stop offset="1" stop-color="#1449C8"/>
</linearGradient>
<clipPath id="clip0">
<rect width="74" height="74" fill="white" transform="matrix(-0.707107 -0.707107 -0.707107 0.707107 105.326 53)"/>
</clipPath>
</defs>
</svg>
