<svg width="28" height="28" viewBox="0 0 28 28" fill="none" xmlns="http://www.w3.org/2000/svg">
<path d="M28 22.8527V5.14685C28 4.81902 27.8738 4.52091 27.6688 4.2957C27.6656 4.29203 27.6622 4.28854 27.6589 4.28487C27.4275 4.03642 27.0986 3.87988 26.733 3.87988H1.26697C0.901891 3.87988 0.573367 4.03604 0.341955 4.28392C0.338407 4.28797 0.334543 4.29184 0.331059 4.29589C0.126127 4.5211 0 4.81915 0 5.14685V22.8527C0 23.1806 0.126253 23.4789 0.331376 23.7041C0.334163 23.7074 0.33733 23.7105 0.340244 23.7138C0.571719 23.9628 0.901005 24.1197 1.26697 24.1197H26.733C27.0986 24.1197 27.4275 23.9632 27.6589 23.7147C27.6622 23.711 27.6656 23.7076 27.6688 23.7039C27.8738 23.4787 28 23.1806 28 22.8527ZM6.21068 17.6777C5.95836 17.4354 5.5573 17.4436 5.315 17.696L1.26697 21.9118V6.08776L8.86396 13.9998L6.81179 16.1371C6.56948 16.3894 6.57766 16.7905 6.83004 17.0328C6.95281 17.1507 7.11086 17.2093 7.26866 17.2093C7.43508 17.2093 7.6013 17.1442 7.72572 17.0146L9.74223 14.9145L12.6656 17.9591C13.0196 18.3278 13.4935 18.5308 14 18.5308C14.5065 18.5308 14.9804 18.3277 15.3344 17.9591L18.2578 14.9145L25.88 22.8527H2.11995L6.22886 18.5734C6.47117 18.3211 6.463 17.92 6.21068 17.6777ZM14.4206 17.0816C14.3077 17.1991 14.1584 17.2638 14 17.2638C13.8416 17.2638 13.6923 17.1991 13.5794 17.0816L2.11995 5.14685H25.88L14.4206 17.0816ZM19.136 13.9998L26.733 6.08776L26.7332 21.912L19.136 13.9998Z" fill="#497AF0"/>
</svg>
