<svg width="28" height="29" viewBox="0 0 28 29" fill="none" xmlns="http://www.w3.org/2000/svg">
<g clip-path="url(#clip0)">
<path d="M13.9778 0.154004L13.9782 0.154004L13.9783 0.154004H13.9783H13.9783H13.9784H13.9784H13.9785H13.9785H13.9786H13.9786H13.9786H13.9787H13.9787H13.9788H13.9788H13.9788H13.9789H13.9789H13.979H13.979H13.9791H13.9791H13.9791H13.9792H13.9792H13.9793H13.9793H13.9794H13.9794H13.9794H13.9795H13.9795H13.9796H13.9796H13.9797H13.9797H13.9797H13.9798H13.9798H13.9799H13.9799H13.9799H13.98H13.98H13.9801H13.9801H13.9802H13.9802H13.9802H13.9803H13.9803H13.9804H13.9804H13.9805H13.9805H13.9805H13.9806H13.9806H13.9807H13.9807H13.9808H13.9808H13.9808H13.9809H13.9809H13.981H13.981H13.981H13.9811H13.9811H13.9812H13.9812H13.9813H13.9813H13.9813H13.9814H13.9814H13.9815H13.9815H13.9816H13.9816H13.9816H13.9817H13.9817H13.9818H13.9818H13.9819H13.9819H13.9819H13.982H13.982H13.9821H13.9821H13.9822H13.9822H13.9822H13.9823H13.9823H13.9824H13.9824H13.9824H13.9825H13.9825H13.9826H13.9826H13.9827H13.9827H13.9827H13.9828H13.9828H13.9829H13.9829H13.983H13.983H13.983H13.9831H13.9831H13.9832H13.9832H13.9833H13.9833H13.9833H13.9834H13.9834H13.9835H13.9835H13.9836H13.9836H13.9836H13.9837H13.9837H13.9838H13.9838H13.9839H13.9839H13.9839H13.984H13.984H13.9841H13.9841H13.9842H13.9842H13.9842H13.9843H13.9843H13.9844H13.9844H13.9845H13.9845H13.9845H13.9846H13.9846H13.9847H13.9847H13.9848H13.9848H13.9848H13.9849H13.9849H13.985H13.985H13.9851H13.9851H13.9851H13.9852H13.9852H13.9853H13.9853H13.9854H13.9854H13.9854H13.9855H13.9855H13.9856H13.9856H13.9857H13.9857H13.9857H13.9858H13.9858H13.9859H13.9859H13.986H13.986H13.986H13.9861H13.9861H13.9862H13.9862H13.9863H13.9863H13.9863H13.9864H13.9864H13.9865H13.9865H13.9866H13.9866H13.9866H13.9867H13.9867H13.9868H13.9868H13.9869H13.9869H13.9869H13.987H13.987H13.9871H13.9871H13.9872H13.9872H13.9872H13.9873H13.9873H13.9874H13.9874H13.9875H13.9875H13.9875H13.9876H13.9876H13.9877H13.9877H13.9878H13.9878H13.9878H13.9879H13.9879H13.988H13.988H13.9881H13.9881H13.9881H13.9882H13.9882H13.9883H13.9883H13.9884H13.9884H13.9884H13.9885H13.9885H13.9886H13.9886H13.9887H13.9887H13.9887H13.9888H13.9888H13.9889H13.9889H13.989H13.989H13.989H13.9891H13.9891H13.9892H13.9892H13.9893H13.9893H13.9893H13.9894H13.9894H13.9895H13.9895H13.9896H13.9896H13.9896H13.9897H13.9897H13.9898H13.9898H13.9899H13.9899H13.9899H13.99H13.99H13.9901H13.9901H13.9902H13.9902H13.9902H13.9903H13.9903H13.9904H13.9904H13.9905H13.9905H13.9905H13.9906H13.9906H13.9907H13.9907H13.9908H13.9908H13.9908H13.9909H13.9909H13.991H13.991H13.9911H13.9911H13.9911H13.9912H13.9912H13.9913H13.9913H13.9914H13.9914H13.9914H13.9915H13.9915H13.9916H13.9916H13.9917H13.9917H13.9917H13.9918H13.9918H13.9919H13.9919H13.992H13.992H13.992H13.9921H13.9921H13.9922H13.9922H13.9923H13.9923H13.9923H13.9924H13.9924H13.9925H13.9925H13.9926H13.9926H13.9926H13.9927H13.9927H13.9928H13.9928H13.9929H13.9929H13.9929H13.993H13.993H13.9931H13.9931H13.9932H13.9932H13.9932H13.9933H13.9933H13.9934H13.9934H13.9935H13.9935H13.9935H13.9936H13.9936H13.9937H13.9937H13.9938H13.9938H13.9938H13.9939H13.9939H13.994H13.994H13.9941H13.9941H13.9941H13.9942H13.9942H13.9943H13.9943H13.9944H13.9944H13.9944H13.9945H13.9945H13.9946H13.9946H13.9947H13.9947H13.9947H13.9948H13.9948H13.9949H13.9949H13.995H13.995H13.995H13.9951H13.9951H13.9952H13.9952H13.9953H13.9953H13.9953H13.9954H13.9954H13.9955H13.9955H13.9956H13.9956H13.9956H13.9957H13.9957H13.9958H13.9958H13.9959H13.9959H13.9959H13.996H13.996H13.9961H13.9961H13.9962H13.9962H13.9962H13.9963H13.9963H13.9964H13.9964H13.9964H13.9965H13.9965H13.9966H13.9966H13.9967H13.9967H13.9967H13.9968H13.9968H13.9969H13.9969H13.997H13.997H13.997H13.9971H13.9971H13.9972H13.9972H13.9973H13.9973H13.9973H13.9974H13.9974H13.9975H13.9975H13.9976H13.9976H13.9976H13.9977H13.9977H13.9978H13.9978H13.9978H13.9979H13.9979H13.998H13.998H13.9981H13.9981H13.9981H13.9982H13.9982H13.9983H13.9983H13.9984H13.9984H13.9984H13.9985H13.9985H13.9986H13.9986H13.9987H13.9987H13.9987H13.9988H13.9988H13.9989H13.9989H13.9989H13.999H13.999H13.9991H13.9991H13.9992H13.9992H13.9992H13.9993H13.9993H13.9994H13.9994H13.9995H13.9995H13.9995H13.9996H13.9996H13.9997H13.9997H13.9997H13.9998H13.9998H13.9999H13.9999H14H14H14C17.052 0.154004 19.9216 1.35343 22.0814 3.53178C24.2464 5.71522 25.4388 8.62044 25.4388 11.7103C25.4388 11.7879 25.438 11.8652 25.4365 11.9424C25.3899 14.3279 24.5409 16.7019 23.047 18.6294L15.8234 27.9496C15.3821 28.519 14.717 28.8467 13.9999 28.8467C13.283 28.8467 12.6177 28.519 12.1765 27.9497L7.25513 21.5998L7.4132 21.4773L7.25512 21.5998C7.0483 21.3329 7.09423 20.9472 7.35924 20.7374C7.62554 20.5265 8.01071 20.5743 8.21857 20.8426C8.21857 20.8426 8.21858 20.8426 8.21859 20.8426L13.1399 27.1924L12.9819 27.3149L13.14 27.1924C13.3491 27.4623 13.662 27.616 13.9999 27.616C14.3379 27.616 14.6508 27.4623 14.86 27.1924L22.0835 17.8723C23.4169 16.1518 24.1732 14.0366 24.2145 11.9182L24.2145 11.9181C24.2159 11.849 24.2166 11.7798 24.2166 11.7103C24.2166 8.94752 23.1512 6.35247 21.2166 4.40131C19.2868 2.45506 16.7251 1.38471 13.9999 1.38471H13.9799C11.2582 1.38997 8.69568 2.47378 6.76288 4.43887C4.82954 6.40451 3.77168 9.00233 3.78333 11.7554L3.78333 11.7555C3.7836 11.8257 3.78462 11.8957 3.78628 11.9656M13.9778 0.154004L6.87754 19.4389C7.01749 19.6195 6.98604 19.8805 6.80732 20.022C6.6286 20.1634 6.37026 20.1318 6.23026 19.9511M13.9778 0.154004C10.9277 0.159855 8.05653 1.37474 5.89463 3.5728C3.73229 5.77123 2.54819 8.67971 2.56121 11.7606C2.56155 11.839 2.5626 11.9173 2.5645 11.9954L13.9778 0.154004ZM3.78628 11.9656L3.58634 11.9704M3.78628 11.9656L3.58634 11.9704M3.78628 11.9656C3.83663 14.0659 4.59239 16.1641 5.91578 17.8715L5.7577 17.994L5.91578 17.8715L7.03562 19.3163L7.03565 19.3164C7.24244 19.5833 7.19652 19.969 6.93145 20.1788M3.58634 11.9704C3.58464 11.8992 3.5836 11.8279 3.58333 11.7563C3.57146 8.95034 4.65001 6.30182 6.62029 4.29862C8.59013 2.29587 11.2038 1.19002 13.9797 1.18471H13.9999C16.7788 1.18471 19.3915 2.27658 21.3586 4.26049C23.3306 6.24933 24.4166 8.89508 24.4166 11.7103C24.4166 11.781 24.4159 11.8516 24.4145 11.9221M3.58634 11.9704L24.4145 11.9221M6.93145 20.1788L6.80763 20.0223L6.93142 20.1788C6.93143 20.1788 6.93144 20.1788 6.93145 20.1788ZM6.93145 20.1788C6.66516 20.3896 6.28007 20.3419 6.07218 20.0736L6.23026 19.9511M6.23026 19.9511L6.07216 20.0735M6.23026 19.9511L5.11042 18.5062C3.65328 16.6262 2.82011 14.3122 2.76444 11.9906C2.76258 11.9139 2.76154 11.8369 2.76121 11.7598C2.74842 8.73168 3.91184 5.8739 6.03721 3.71304C8.1621 1.55263 10.9823 0.359751 13.9782 0.354004L6.07216 20.0735M24.4145 11.9221C24.3723 14.0847 23.6006 16.2413 22.2416 17.9948M24.4145 11.9221L22.2416 17.9948M6.07216 20.0735L4.95235 18.6287C3.46972 16.7158 2.62123 14.3608 2.5645 11.9954L6.07216 20.0735ZM22.2416 17.9948L15.018 27.3149L22.2416 17.9948Z" fill="#497AF0" stroke="#497AF0" stroke-width="0.4"/>
<path d="M17.65 11.3173C17.65 13.3682 16.007 15.0149 14 15.0149C11.9929 15.0149 10.35 13.3682 10.35 11.3173C10.35 9.26634 11.9929 7.61973 14 7.61973C16.007 7.61973 17.65 9.26634 17.65 11.3173Z" stroke="#497AF0" stroke-width="1.8"/>
</g>
<defs>
<clipPath id="clip0">
<rect width="28" height="29" fill="white"/>
</clipPath>
</defs>
</svg>
