<svg width="74" height="74" viewBox="0 0 74 74" fill="none" xmlns="http://www.w3.org/2000/svg">
<path d="M37 55.7891C36.2022 55.7891 35.5547 56.4366 35.5547 57.2344C35.5547 58.0322 36.2022 58.6797 37 58.6797C37.7978 58.6797 38.4453 58.0322 38.4453 57.2344C38.4453 56.4366 37.7978 55.7891 37 55.7891Z" fill="url(#paint0_linear)"/>
<path d="M67.7977 8.86988C64.2411 7.43743 59.617 6.64844 54.7773 6.64844C49.9377 6.64844 45.3136 7.43743 41.757 8.86988C39.6552 9.7164 38.0505 10.751 37 11.9118C35.9495 10.751 34.3448 9.71655 32.243 8.87003C28.6864 7.43743 24.0623 6.64844 19.2227 6.64844C14.383 6.64844 9.75889 7.43743 6.20227 8.86988C2.20266 10.4808 0 12.7716 0 15.3203V50.0078C0 52.5565 2.20266 54.8473 6.20227 56.4582C9.51016 57.7905 13.7417 58.5652 18.2109 58.6673V58.6797C18.2109 63.6235 26.2885 67.3516 37 67.3516C47.7115 67.3516 55.7891 63.6235 55.7891 58.6797V58.6673C60.2583 58.5652 64.4898 57.7905 67.7977 56.4582C71.7973 54.8473 74 52.5565 74 50.0078V15.3203C74 12.7716 71.7973 10.4808 67.7977 8.86988ZM71.1094 41.3359C71.1094 42.5698 69.4266 44.014 66.7178 45.105C63.786 46.2858 59.8498 47.0003 55.7891 47.1029V41.3359C55.7891 41.3317 55.7888 41.3276 55.7888 41.3235C60.2581 41.2216 64.4897 40.4469 67.7979 39.1145C69.0962 38.5916 70.2037 37.9967 71.1095 37.3448L71.1094 41.3359ZM35.5547 23.9922C35.5547 25.2261 33.8719 26.6702 31.1631 27.7613C27.9882 29.0401 23.6361 29.7734 19.2227 29.7734C14.8092 29.7734 10.4571 29.0401 7.28221 27.7613C4.5734 26.6702 2.89062 25.2261 2.89062 23.9922V20.0011C3.7964 20.6529 4.90394 21.2478 6.20227 21.7707C9.75889 23.2032 14.383 23.9922 19.2227 23.9922C24.0623 23.9922 28.6864 23.2032 32.243 21.7707C33.5414 21.2478 34.6489 20.6529 35.5547 20.0011V23.9922ZM6.20227 30.4426C9.75889 31.8751 14.383 32.6641 19.2227 32.6641C24.0623 32.6641 28.6864 31.8751 32.243 30.4426C33.5414 29.9197 34.6489 29.3248 35.5547 28.673V32.6896C31.8157 32.8163 28.2298 33.4299 25.3295 34.4513C22.4206 35.4759 20.3273 36.8422 19.189 38.4449C14.7871 38.4411 10.449 37.7086 7.28221 36.4331C4.5734 35.3421 2.89062 33.8979 2.89062 32.6641V28.673C3.7964 29.3248 4.90394 29.9197 6.20227 30.4426ZM2.89062 37.3448C3.7964 37.9967 4.90394 38.5916 6.20227 39.1145C9.5103 40.4468 13.742 41.2215 18.2114 41.3235C18.2114 41.3277 18.2111 41.3319 18.2111 41.3359V47.1029C14.1502 47.0003 10.2142 46.2858 7.28235 45.105C4.5734 44.014 2.89062 42.5698 2.89062 41.3359V37.3448ZM21.2545 40.6259C22.3256 38.1331 28.5079 35.5547 37 35.5547C45.4921 35.5547 51.6744 38.1331 52.7444 40.623C52.8481 40.8659 52.8984 41.0991 52.8984 41.3359C52.8984 42.6067 51.3319 44.0181 48.7078 45.1115C45.6038 46.4049 41.4459 47.1172 37 47.1172C32.5541 47.1172 28.3962 46.4049 25.2922 45.1115C22.6681 44.0181 21.1016 42.6067 21.1016 41.3359C21.1016 41.0991 21.152 40.8659 21.2545 40.6259ZM71.1094 32.6641C71.1094 33.8979 69.4266 35.3421 66.7178 36.4331C63.5511 37.7086 59.2132 38.4411 54.8115 38.4449C53.674 36.843 51.5805 35.4762 48.6705 34.4513C45.7702 33.4298 42.1843 32.8163 38.4453 32.6896V28.673C39.3511 29.3248 40.4586 29.9197 41.757 30.4426C45.3136 31.8751 49.9377 32.6641 54.7773 32.6641C59.617 32.6641 64.2411 31.8751 67.7977 30.4426C69.0961 29.9197 70.2036 29.3248 71.1094 28.673V32.6641ZM71.1094 23.9922C71.1094 25.2261 69.4266 26.6702 66.7178 27.7613C63.5429 29.0401 59.1908 29.7734 54.7773 29.7734C50.3639 29.7734 46.0118 29.0401 42.8369 27.7613C40.1281 26.6702 38.4453 25.2261 38.4453 23.9922V20.0011C39.3511 20.6529 40.4586 21.2478 41.757 21.7707C45.3136 23.2032 49.9377 23.9922 54.7773 23.9922C59.617 23.9922 64.2411 23.2032 67.7977 21.7707C69.0961 21.2478 70.2036 20.6529 71.1094 20.0011V23.9922ZM42.8369 11.5512C46.0118 10.2724 50.3639 9.53906 54.7773 9.53906C59.1908 9.53906 63.5429 10.2724 66.7178 11.5512C69.4266 12.6423 71.1094 14.0864 71.1094 15.3203C71.1094 16.5542 69.4266 17.9983 66.7178 19.0894C63.5429 20.3682 59.1908 21.1016 54.7773 21.1016C50.3639 21.1016 46.0118 20.3682 42.8369 19.0894C40.1281 17.9983 38.4453 16.5542 38.4453 15.3203C38.4453 14.0864 40.1281 12.6423 42.8369 11.5512ZM7.28221 11.5512C10.4571 10.2724 14.8092 9.53906 19.2227 9.53906C23.6361 9.53906 27.9882 10.2724 31.1631 11.5512C33.8719 12.6423 35.5547 14.0864 35.5547 15.3203C35.5547 16.5542 33.8719 17.9983 31.1631 19.0894C27.9882 20.3682 23.6361 21.1016 19.2227 21.1016C14.8092 21.1016 10.4571 20.3682 7.28221 19.0894C4.5734 17.9983 2.89062 16.5542 2.89062 15.3203C2.89062 14.0864 4.5734 12.6423 7.28221 11.5512ZM7.28221 53.7769C4.5734 52.6858 2.89062 51.2417 2.89062 50.0078V46.0167C3.7964 46.6686 4.90394 47.2635 6.20227 47.7864C9.51016 49.1187 13.7417 49.8933 18.2109 49.9954V55.7749C14.15 55.6721 10.214 54.9579 7.28221 53.7769ZM48.7078 62.4553C45.6038 63.7487 41.4459 64.4609 37 64.4609C32.5541 64.4609 28.3962 63.7487 25.2922 62.4553C22.6681 61.3619 21.1016 59.9504 21.1016 58.6797V54.7729C21.4289 55.0098 21.7907 55.2452 22.1919 55.4773C24.4363 56.7761 27.4901 57.7368 31.0233 58.2553C31.0946 58.2658 31.1651 58.2708 31.2351 58.2708C31.9404 58.2708 32.5577 57.7538 32.6632 57.0352C32.7791 56.2455 32.2328 55.5113 31.4432 55.3954C24.7261 54.4092 21.1016 51.8837 21.1016 50.0078V46.0881C24.3729 48.4819 30.1473 50.0078 37 50.0078C43.8527 50.0078 49.6271 48.4819 52.8984 46.0881V50.0078C52.8984 51.8837 49.2739 54.4092 42.5568 55.3954C41.7671 55.5113 41.2207 56.2455 41.3368 57.0352C41.4423 57.754 42.0596 58.2708 42.7649 58.2708C42.8347 58.2708 42.9055 58.2658 42.9767 58.2553C46.5097 57.7368 49.5635 56.7762 51.8081 55.4773C52.2092 55.2452 52.5711 55.0098 52.8984 54.7729V58.6797C52.8984 59.9504 51.3319 61.3619 48.7078 62.4553ZM66.7178 53.7769C63.786 54.9577 59.8498 55.6721 55.7891 55.7748V49.9952C60.2583 49.8932 64.4898 49.1185 67.7977 47.7862C69.0961 47.2633 70.2036 46.6684 71.1094 46.0166V50.0078C71.1094 51.2417 69.4266 52.6858 66.7178 53.7769Z" fill="url(#paint1_linear)"/>
<defs>
<linearGradient id="paint0_linear" x1="37" y1="55.7891" x2="37" y2="58.6797" gradientUnits="userSpaceOnUse">
<stop stop-color="#497AF0"/>
<stop offset="1" stop-color="#1449C8"/>
</linearGradient>
<linearGradient id="paint1_linear" x1="37" y1="6.64844" x2="37" y2="67.3516" gradientUnits="userSpaceOnUse">
<stop stop-color="#497AF0"/>
<stop offset="1" stop-color="#1449C8"/>
</linearGradient>
</defs>
</svg>
