<svg width="80" height="80" viewBox="0 0 80 80" fill="none" xmlns="http://www.w3.org/2000/svg">
<g clip-path="url(#clip0)">
<path d="M41.4026 36.4093H45.0488V39.3787C45.0488 40.0104 45.4297 40.5805 46.0132 40.8222C46.2067 40.9021 46.4099 40.9412 46.6113 40.9412C47.0178 40.9412 47.4176 40.7825 47.7161 40.4834L51.7902 36.4093H72.0307C76.4246 36.4093 80 32.8345 80 28.4399V11.2506C80 6.85608 76.4246 3.28125 72.0307 3.28125H41.4026C37.0081 3.28125 33.4326 6.85608 33.4326 11.2506V28.4399C33.4326 32.8345 37.0081 36.4093 41.4026 36.4093ZM36.5582 11.2506C36.5582 8.57971 38.7311 6.40625 41.4026 6.40625H72.0307C74.7015 6.40625 76.8744 8.57971 76.8744 11.2506V28.4399C76.8744 31.1108 74.7015 33.2843 72.0307 33.2843H51.1432C50.7288 33.2843 50.3314 33.4491 50.0378 33.7421L48.1738 35.6061V34.8468C48.1738 33.9838 47.4744 33.2843 46.6113 33.2843H41.4026C38.7311 33.2843 36.5582 31.1108 36.5582 28.4399V11.2506Z" fill="url(#paint0_linear)"/>
<path d="M41.7059 29.3517H57.9578C58.8202 29.3517 59.5203 28.6516 59.5203 27.7886V25.3167C59.5203 22.379 57.4554 19.9163 54.7015 19.2986C55.0891 18.5472 55.3095 17.697 55.3095 16.7955V15.8165C55.3095 12.7959 52.8522 10.3386 49.8315 10.3386C46.8115 10.3386 44.3542 12.7959 44.3542 15.8165V16.7955C44.3542 17.697 44.5746 18.5472 44.9622 19.2986C42.2076 19.9163 40.1434 22.379 40.1434 25.3167V27.7886C40.1434 28.6516 40.8429 29.3517 41.7059 29.3517ZM47.4792 15.8165C47.4792 14.5195 48.5345 13.4642 49.8315 13.4642C51.1285 13.4642 52.1838 14.5195 52.1838 15.8165V16.7955C52.1838 18.0925 51.1285 19.1478 49.8315 19.1478C48.5345 19.1478 47.4792 18.0925 47.4792 16.7955V15.8165ZM43.2684 25.3167C43.2684 23.6382 44.6338 22.2728 46.3123 22.2728H53.3508C55.0293 22.2728 56.3947 23.6382 56.3947 25.3167V26.2261H43.2684V25.3167Z" fill="url(#paint1_linear)"/>
<path d="M64.3732 16.0222H70.9888C71.8512 16.0222 72.5513 15.3228 72.5513 14.4597C72.5513 13.5967 71.8512 12.8972 70.9888 12.8972H64.3732C63.5107 12.8972 62.8107 13.5967 62.8107 14.4597C62.8107 15.3228 63.5107 16.0222 64.3732 16.0222Z" fill="url(#paint2_linear)"/>
<path d="M64.3732 22.273H70.9888C71.8512 22.273 72.5513 21.5735 72.5513 20.7105C72.5513 19.8474 71.8512 19.1479 70.9888 19.1479H64.3732C63.5107 19.1479 62.8107 19.8474 62.8107 20.7105C62.8107 21.5735 63.5107 22.273 64.3732 22.273Z" fill="url(#paint3_linear)"/>
<path d="M64.3732 28.5234H70.9888C71.8512 28.5234 72.5513 27.824 72.5513 26.9609C72.5513 26.0979 71.8512 25.3984 70.9888 25.3984H64.3732C63.5107 25.3984 62.8107 26.0979 62.8107 26.9609C62.8107 27.824 63.5107 28.5234 64.3732 28.5234Z" fill="url(#paint4_linear)"/>
<path d="M79.5423 74.3408L76.0364 70.8349C75.5298 70.3283 74.8566 70.0494 74.14 70.0494C73.4235 70.0494 72.7496 70.3283 72.2431 70.8349L69.7296 73.3484L67.2119 70.8307C66.1658 69.7851 64.4641 69.7851 63.4186 70.8307L60.9174 73.3319L58.2733 70.6878C57.2272 69.6423 55.5255 69.6423 54.48 70.6878L52.2229 72.9449L48.8049 67.1515L50.636 65.9198C50.6372 65.9185 50.639 65.9179 50.6403 65.9167L50.8563 65.7714C52.9437 64.3664 54.2804 62.1246 54.5227 59.6197C54.765 57.1154 53.8837 54.6588 52.1051 52.8796L45.6537 46.4282C42.7344 43.5095 38.0347 43.164 34.7205 45.625L30.545 48.7255C30.2289 48.9605 29.7809 48.9276 29.5026 48.6492L22.1307 41.2774C21.8524 40.9991 21.8195 40.5511 22.0538 40.2349L25.155 36.0595C27.616 32.7453 27.2705 28.045 24.3518 25.1269L17.9004 18.6749C16.1212 16.8957 13.6639 16.015 11.1597 16.2573C8.65539 16.4996 6.41357 17.8363 5.00854 19.9237L4.81933 20.205C4.8175 20.2075 4.81567 20.2099 4.81445 20.2124L2.47192 23.6938C-1.40503 29.4555 -0.654911 37.2015 4.25537 42.1118L12.0422 49.898C12.6526 50.5084 13.642 50.5084 14.2523 49.898C14.8627 49.2883 14.8627 48.2983 14.2523 47.6879L6.46545 39.9017C2.60925 36.0455 2.02026 29.9627 5.06469 25.4388L6.35864 23.5162L20.2563 37.4139L19.5447 38.3721C18.3936 39.9224 18.5553 42.1221 19.9207 43.4875L27.2925 50.8587C28.6578 52.2247 30.8569 52.3864 32.4078 51.2347L33.4308 50.476L47.3309 64.3762L45.3412 65.7153C40.8167 68.7597 34.7339 68.1707 30.8783 64.3145L23.092 56.5283C22.4817 55.9185 21.4929 55.9185 20.882 56.5283C20.2716 57.1386 20.2716 58.128 20.882 58.7384L28.6682 66.5246C31.4764 69.3328 35.2106 70.78 38.9722 70.78C41.452 70.78 43.9435 70.1495 46.1871 68.8659L49.8224 75.0256C50.2472 75.7452 50.9662 76.2182 51.7951 76.3232C52.6245 76.4276 53.4387 76.1499 54.0289 75.559L56.3764 73.211L59.0204 75.8551C60.0665 76.9006 61.7682 76.9006 62.8137 75.8551L65.3149 73.3538L67.8326 75.8722C68.8788 76.9177 70.5805 76.9177 71.626 75.8722L74.14 73.3581L77.3322 76.5503C77.6373 76.8554 78.0371 77.008 78.4369 77.008C78.8373 77.008 79.2371 76.8554 79.5423 76.5503C80.1526 75.9399 80.1526 74.9505 79.5423 74.3408ZM8.19763 20.9356C9.05884 20.0494 10.2069 19.4897 11.4612 19.3682C13.0341 19.2163 14.574 19.7686 15.6903 20.885L22.1417 27.337C23.9728 29.168 24.1895 32.1173 22.6459 34.1961L22.1399 34.8779L8.19763 20.9356ZM36.5839 48.1341C38.6627 46.5899 41.6119 46.8066 43.443 48.6383L49.8944 55.0897C51.0107 56.206 51.5637 57.7478 51.4118 59.3188C51.2927 60.5462 50.7538 61.6717 49.9005 62.5262L35.9668 48.5925L36.5839 48.1341Z" fill="url(#paint5_linear)"/>
<path d="M17.5671 51.6504C17.1545 51.6504 16.7529 51.8176 16.4624 52.1082C16.17 52.3993 16.0046 52.8021 16.0046 53.2129C16.0046 53.6243 16.17 54.0271 16.4624 54.3182C16.7529 54.6082 17.1552 54.776 17.5671 54.776C17.9785 54.776 18.3813 54.6088 18.6719 54.3182C18.9624 54.0271 19.1296 53.6243 19.1296 53.2129C19.1296 52.8021 18.963 52.3993 18.6719 52.1082C18.3813 51.8176 17.9785 51.6504 17.5671 51.6504Z" fill="url(#paint6_linear)"/>
</g>
<defs>
<linearGradient id="paint0_linear" x1="56.7163" y1="3.28125" x2="56.7163" y2="40.9412" gradientUnits="userSpaceOnUse">
<stop stop-color="#497AF0"/>
<stop offset="1" stop-color="#1449C8"/>
</linearGradient>
<linearGradient id="paint1_linear" x1="49.8319" y1="10.3386" x2="49.8319" y2="29.3517" gradientUnits="userSpaceOnUse">
<stop stop-color="#497AF0"/>
<stop offset="1" stop-color="#1449C8"/>
</linearGradient>
<linearGradient id="paint2_linear" x1="67.681" y1="12.8972" x2="67.681" y2="16.0222" gradientUnits="userSpaceOnUse">
<stop stop-color="#497AF0"/>
<stop offset="1" stop-color="#1449C8"/>
</linearGradient>
<linearGradient id="paint3_linear" x1="67.681" y1="19.1479" x2="67.681" y2="22.273" gradientUnits="userSpaceOnUse">
<stop stop-color="#497AF0"/>
<stop offset="1" stop-color="#1449C8"/>
</linearGradient>
<linearGradient id="paint4_linear" x1="67.681" y1="25.3984" x2="67.681" y2="28.5234" gradientUnits="userSpaceOnUse">
<stop stop-color="#497AF0"/>
<stop offset="1" stop-color="#1449C8"/>
</linearGradient>
<linearGradient id="paint5_linear" x1="40.0001" y1="16.2178" x2="40.0001" y2="77.008" gradientUnits="userSpaceOnUse">
<stop stop-color="#497AF0"/>
<stop offset="1" stop-color="#1449C8"/>
</linearGradient>
<linearGradient id="paint6_linear" x1="17.5671" y1="51.6504" x2="17.5671" y2="54.776" gradientUnits="userSpaceOnUse">
<stop stop-color="#497AF0"/>
<stop offset="1" stop-color="#1449C8"/>
</linearGradient>
<clipPath id="clip0">
<rect width="80" height="80" fill="white"/>
</clipPath>
</defs>
</svg>
