<svg width="80" height="80" viewBox="0 0 80 80" fill="none" xmlns="http://www.w3.org/2000/svg">
<path d="M60.7258 54.737L47.4334 61.3201C46.9647 59.3558 45.4852 57.6842 43.4134 57.0705L37.2588 55.2461C32.8214 53.9269 26.9814 52.8431 21.163 56.1987C20.7937 56.4104 20.4631 56.6223 20.1712 56.8094C19.0652 57.5183 18.3884 57.9494 16.4563 57.9615C15.8359 56.4342 14.3366 55.354 12.5887 55.354H6.28234C3.98141 55.354 2.10938 57.2251 2.10938 59.5251V74.1539C2.10938 76.4539 3.98125 78.325 6.28234 78.325H12.5889C14.7981 78.325 16.6108 76.5998 16.7519 74.4265C19.3636 74.4626 21.0748 74.6598 24.6187 75.7014C26.5678 76.2753 34.8988 78.6986 35.5328 78.8825C37.6263 79.4897 39.3858 80.0001 41.2197 80C43.2906 80 45.4562 79.3489 48.3033 77.4514C48.3166 77.4425 48.3297 77.4334 48.3427 77.4242L66.6453 64.3994C69.2425 62.5545 69.998 59.2233 68.4037 56.653C66.8372 54.1183 63.6089 53.3123 60.7258 54.737ZM13.6367 74.1539C13.6367 74.7308 13.1667 75.2001 12.5887 75.2001H6.28234C5.70453 75.2001 5.23438 74.7308 5.23438 74.1539V59.5251C5.23438 58.9483 5.70438 58.4789 6.28234 58.4789H12.5889C13.1667 58.4789 13.6369 58.9483 13.6369 59.5251V74.1539H13.6367ZM64.8345 61.853L46.5503 74.8645C42.405 77.6222 40.6452 77.1117 36.4033 75.8814C35.7609 75.6951 27.4481 73.2772 25.5008 72.7037C21.7014 71.587 19.8242 71.3479 16.7617 71.3034V61.082C19.4053 61.0108 20.6516 60.2133 21.8575 59.4405C22.1316 59.2647 22.4148 59.0831 22.7208 58.9078C26.5091 56.723 30.5905 56.5237 36.3695 58.2419L42.5255 60.0665C43.9498 60.4886 44.7723 61.9844 44.36 63.4022C44.3592 63.4045 44.3586 63.4069 44.3578 63.409C43.9416 64.8272 42.4425 65.6436 41.0155 65.2303L32.2136 62.6792C31.3845 62.4389 30.518 62.9161 30.278 63.745C30.0377 64.5737 30.5148 65.4405 31.3438 65.6806L40.1456 68.2317C42.9883 69.0555 45.9647 67.609 47.1111 64.9667L62.1114 57.5376C63.3161 56.9422 64.9514 57.0114 65.7466 58.2979C66.4602 59.4484 66.0684 60.9764 64.8345 61.853Z" fill="url(#paint0_linear)"/>
<path d="M21.521 21.4918V44.3426C21.521 47.2995 23.9277 49.7051 26.886 49.7051H55.6754C58.6313 49.7051 61.0361 47.2995 61.0361 44.3426V21.4926C63.3975 21.0604 65.1932 18.9899 65.1932 16.5068V14.2879C65.1932 11.4921 62.9177 9.21774 60.1205 9.21774H56.8839L53.2422 9.21773L48.794 9.2177L44.5 9.21768L41.5 9.21767L37.5 9.21764L33.5 9.21762C33.5 9.21762 30.7573 9.23427 29 9.21766C27.695 9.20532 26.4336 9.21759 26.4336 9.21759C26.4336 9.21759 25.97 9.21759 25.673 9.21759C24.4107 9.21759 22.4407 9.21759 22.4407 9.21759C19.6436 9.21759 17.3682 11.492 17.3682 14.2877V16.5066C17.3683 18.9884 19.1619 21.0579 21.521 21.4918ZM20.4933 14.2879C20.4933 13.2152 21.3669 12.3427 22.4408 12.3427H60.1207C61.1946 12.3427 62.0683 13.2154 62.0683 14.2879V16.5068C62.0683 17.5795 61.1946 18.452 60.1207 18.452H41.2808C40.418 18.452 39.7183 19.1515 39.7183 20.0145C39.7183 20.8774 40.418 21.577 41.2808 21.577H57.9113V44.3427C57.9113 45.5765 56.9083 46.5802 55.6755 46.5802H26.8861C25.651 46.5802 24.6461 45.5765 24.6461 44.3427V21.577H27.0104C27.8733 21.577 28.5729 20.8774 28.5729 20.0145C28.5729 19.1515 27.8733 18.452 27.0104 18.452H22.441C21.3671 18.452 20.4935 17.5793 20.4935 16.5068L20.4933 14.2879Z" fill="url(#paint1_linear)"/>
<path d="M34.0303 21.5769C34.8932 21.5769 35.5928 20.8774 35.5928 20.0144C35.5928 19.1514 34.8932 18.4519 34.0303 18.4519H34.0259C33.1629 18.4519 32.4656 19.1514 32.4656 20.0144C32.4654 20.8774 33.1673 21.5769 34.0303 21.5769Z" fill="url(#paint2_linear)"/>
<defs>
<linearGradient id="paint0_linear" x1="35.6727" y1="53.969" x2="35.6727" y2="80" gradientUnits="userSpaceOnUse">
<stop stop-color="#497AF0"/>
<stop offset="1" stop-color="#1449C8"/>
</linearGradient>
<linearGradient id="paint1_linear" x1="41.2807" y1="9.21216" x2="41.2807" y2="49.7051" gradientUnits="userSpaceOnUse">
<stop stop-color="#497AF0"/>
<stop offset="1" stop-color="#1449C8"/>
</linearGradient>
<linearGradient id="paint2_linear" x1="34.0292" y1="18.4519" x2="34.0292" y2="21.5769" gradientUnits="userSpaceOnUse">
<stop stop-color="#497AF0"/>
<stop offset="1" stop-color="#1449C8"/>
</linearGradient>
</defs>
</svg>
