<svg width="80" height="80" viewBox="0 0 80 80" fill="none" xmlns="http://www.w3.org/2000/svg">
<g clip-path="url(#clip0)">
<path d="M39.9991 15.9291C40.862 15.9291 41.5616 15.2294 41.5616 14.3666V6.40723C41.5616 5.54441 40.8621 4.84473 39.9991 4.84473C39.1362 4.84473 38.4366 5.54426 38.4366 6.40723V14.3666C38.4368 15.2294 39.1363 15.9291 39.9991 15.9291Z" fill="url(#paint0_linear)"/>
<path d="M28.2519 18.4959C28.549 18.9674 29.0563 19.2255 29.5752 19.2255C29.8599 19.2255 30.1482 19.1477 30.4068 18.9847C31.1368 18.5247 31.3555 17.5599 30.8955 16.8297L26.7324 10.2242C26.2722 9.49422 25.3074 9.27532 24.5775 9.73547C23.8475 10.1955 23.6288 11.1603 24.0888 11.8905L28.2519 18.4959Z" fill="url(#paint1_linear)"/>
<path d="M49.5968 18.985C49.8554 19.1477 50.1433 19.2253 50.4277 19.2253C50.9468 19.2253 51.4544 18.9669 51.7515 18.4952L55.9102 11.8897C56.3699 11.1594 56.1507 10.1949 55.4204 9.73488C54.6897 9.27535 53.7255 9.49473 53.2657 10.2247L49.1069 16.8302C48.6473 17.5607 48.8666 18.5252 49.5968 18.985Z" fill="url(#paint2_linear)"/>
<path d="M79.4962 41.6299L76.7814 36.8338C76.356 36.0825 75.4026 35.8185 74.6521 36.2438C73.901 36.6689 73.637 37.6222 74.0621 38.373L76.7757 43.1671C76.9117 43.408 76.8764 43.6404 76.8432 43.7574C76.8114 43.87 76.7235 44.078 76.4939 44.2049L72.3098 46.5225C71.9381 46.7278 71.4529 46.5982 71.2503 46.2407L70.1873 44.3604C70.1829 44.3519 70.1779 44.3441 70.1734 44.3358L59.1843 24.8993C59.0485 24.66 59.0829 24.4307 59.1154 24.3152C59.1468 24.2035 59.234 23.9971 59.4637 23.87L63.6528 21.5519C64.0292 21.3435 64.5025 21.47 64.7082 21.8347L67.1573 26.1618C67.5825 26.9129 68.536 27.1768 69.2867 26.7519C70.0378 26.3269 70.3018 25.3735 69.8768 24.6225L67.4289 20.2974C66.3848 18.4464 64.0126 17.7825 62.1404 18.8174L57.9515 21.1355C57.0451 21.6364 56.3903 22.4644 56.1078 23.4674C55.8412 24.413 55.9365 25.4002 56.3729 26.2666L54.0654 26.9353C53.0825 27.2197 52.4859 27.3739 52.1548 27.3739C52.1534 27.3739 52.1521 27.3739 52.1509 27.3739C51.9229 27.3732 51.6743 27.2861 50.9648 27.0174C50.6429 26.8955 50.2421 26.7436 49.7495 26.5718L45.6612 25.1425C43.4001 24.3528 42.3803 24.3954 40.9028 24.5302L33.9315 25.1541C30.7535 25.4357 28.7275 26.1525 27.609 27.3958L23.6362 26.2447C24.0637 25.3821 24.1554 24.4044 23.8914 23.4674C23.6089 22.465 22.9545 21.6372 22.049 21.1363L17.8625 18.8171C15.9887 17.7813 13.6151 18.4455 12.5709 20.296L0.507765 41.6277C-0.00864159 42.5369 -0.136454 43.5944 0.148233 44.6055C0.431046 45.6096 1.08573 46.4383 1.99042 46.9386L6.17698 49.2575C6.77558 49.5885 7.42589 49.7457 8.06761 49.7457C9.43089 49.7457 10.7562 49.0364 11.4685 47.7788L11.9109 46.9963C13.1181 47.5277 14.1317 48.2997 14.8225 49.2138C14.1478 50.0022 13.7228 50.9752 13.6035 52.0335C13.446 53.433 13.8414 54.8061 14.7167 55.9007C15.5845 56.9858 16.8254 57.6705 18.2131 57.8318C18.0662 59.2194 18.4631 60.5791 19.3317 61.6614C20.2295 62.7839 21.4984 63.4388 22.8257 63.5933C22.6795 64.9789 23.075 66.3374 23.9409 67.4203C24.8082 68.5079 26.0495 69.1939 27.4385 69.3552C27.2915 70.7439 27.6884 72.1044 28.557 73.1869C29.5923 74.4813 31.1207 75.1552 32.6637 75.155C33.8156 75.155 34.9756 74.7794 35.944 74.006L39.2156 71.3882C39.4754 71.1808 39.7115 70.9516 39.9239 70.7047L41.7926 72.1975C42.759 72.9688 43.9164 73.3435 45.0667 73.3433C46.6104 73.3432 48.1414 72.6685 49.1781 71.3728C49.7245 70.6897 50.0704 69.91 50.2267 69.1052C50.7731 69.2943 51.35 69.3919 51.9381 69.3918C52.1353 69.3918 52.3337 69.3808 52.5328 69.3588C53.9328 69.2033 55.1846 68.5149 56.0545 67.4239C56.9246 66.3399 57.3215 64.9804 57.1748 63.5928C58.5012 63.438 59.7707 62.7833 60.6712 61.6613C61.5681 60.5399 61.9281 59.1593 61.7871 57.8314C63.174 57.6699 64.4143 56.9854 65.2801 55.9027C66.1561 54.8111 66.5531 53.44 66.3979 52.0416C66.2801 50.98 65.8548 50.0038 65.1789 49.2132C65.8676 48.2994 66.8792 47.5264 68.0871 46.9953L68.5304 47.7794C69.2423 49.0366 70.567 49.7455 71.9306 49.7455C72.5726 49.7454 73.2235 49.5882 73.8228 49.2569L78.007 46.9391C78.9114 46.4391 79.5657 45.6116 79.8496 44.6093C80.1359 43.5991 80.0107 42.5416 79.4962 41.6299ZM8.74886 46.2399C8.54573 46.5986 8.06026 46.728 7.69011 46.5232L3.5037 44.2044C3.27511 44.0779 3.18792 43.8707 3.15605 43.7583C3.12339 43.6419 3.08855 43.4108 3.22636 43.1686L15.2914 21.8327C15.4295 21.5879 15.6898 21.4507 15.9601 21.4507C16.0917 21.4507 16.2254 21.483 16.3489 21.5513L20.5342 23.8697C20.5346 23.87 20.5351 23.8704 20.5356 23.8705C20.7646 23.9972 20.8517 24.2036 20.8832 24.3154C20.9157 24.4308 20.9501 24.6602 20.8128 24.9021L8.74886 46.2399ZM20.151 54.2805C19.7104 54.6335 19.154 54.793 18.5854 54.7297C18.0165 54.6666 17.5095 54.3894 17.1573 53.9491C16.8043 53.5077 16.6453 52.9514 16.7092 52.383C16.7728 51.8169 17.0501 51.3124 17.4929 50.96L23.3426 46.2841C24.2607 45.5511 25.6046 45.7019 26.3384 46.6183C26.6912 47.0594 26.8504 47.6147 26.7867 48.1814C26.7232 48.7463 26.4457 49.2504 26.0054 49.6007C25.9957 49.6083 25.9875 49.6169 25.9781 49.6249L20.1525 54.2794C20.152 54.2797 20.1515 54.2802 20.151 54.2805ZM21.7704 59.7077C21.4178 59.2682 21.2584 58.7143 21.3214 58.148C21.3843 57.5813 21.662 57.0744 22.1029 56.7208L22.1034 56.7205C22.1037 56.7204 22.104 56.72 22.1043 56.7199C22.1045 56.7199 22.1045 56.7197 22.1046 56.7196L30.5306 49.9877C31.4485 49.2546 32.7928 49.4043 33.5264 50.3219C33.8787 50.7624 34.0379 51.3171 33.975 51.8836C33.9118 52.4508 33.6334 52.9577 33.1914 53.3108L24.7676 60.0402C23.8485 60.7736 22.5048 60.6257 21.7704 59.7077ZM27.8107 66.253C27.242 66.1899 26.7354 65.9124 26.3828 65.4702C26.0304 65.0297 25.8712 64.475 25.9342 63.9085C25.9973 63.3418 26.2753 62.8354 26.7167 62.4822C26.717 62.4819 26.7175 62.4816 26.7178 62.4813L32.5487 57.8232C32.5556 57.8179 32.5631 57.8133 32.57 57.8079C33.4856 57.0749 34.8293 57.2241 35.5637 58.1394C35.9167 58.5807 36.0759 59.1369 36.012 59.7053C35.9482 60.2714 35.6709 60.776 35.2282 61.1283L29.3787 65.8041C28.9367 66.1571 28.3796 66.3158 27.8107 66.253ZM38.0479 67.5214C37.9846 68.0882 37.707 68.5939 37.2648 68.9471L33.9931 71.5654C33.0739 72.2989 31.7301 72.1513 30.996 71.2332C30.6434 70.7939 30.4839 70.2396 30.5468 69.6722C30.6098 69.1049 30.8871 68.5988 31.3273 68.2472C31.3278 68.2469 31.3284 68.2464 31.3289 68.2461L34.5998 65.6314C34.6015 65.63 34.6034 65.6289 34.6051 65.6277C35.5234 64.8949 36.8673 65.045 37.601 65.9619C37.9525 66.4016 38.1114 66.9552 38.0479 67.5214ZM62.8414 53.9489C62.4892 54.3893 61.982 54.6666 61.4132 54.7297C60.845 54.7936 60.2882 54.6336 59.8476 54.2805C59.8475 54.2803 59.8471 54.2802 59.8468 54.28C59.8467 54.2799 59.8464 54.2797 59.8462 54.2796L55.6653 50.9391C54.9909 50.4003 54.0078 50.5103 53.4693 51.1844C52.9307 51.8585 53.0406 52.8418 53.7146 53.3804L57.8942 56.7197C58.8111 57.4539 58.9621 58.7952 58.2325 59.7075C57.4962 60.625 56.1523 60.7743 55.2348 60.0394L50.6996 56.4204C50.0253 55.8822 49.0421 55.9927 48.5039 56.6671C47.9657 57.3414 48.076 58.3246 48.7506 58.8629L53.2836 62.4802C53.7253 62.8339 54.0032 63.3411 54.0664 63.9085C54.1293 64.4747 53.97 65.0288 53.6143 65.4718C53.2629 65.9124 52.7564 66.1897 52.1878 66.253C51.6185 66.3157 51.0615 66.1568 50.6212 65.8054L48.3646 64.0007C48.3607 63.9975 48.3573 63.9943 48.3534 63.9911L46.4468 62.4669L46.0904 62.1819C45.4162 61.6428 44.4331 61.7524 43.8943 62.4261C43.827 62.5105 43.7696 62.5996 43.7225 62.6921C43.4962 63.1343 43.5 63.6529 43.7123 64.0877C43.8106 64.2891 43.9521 64.473 44.1387 64.6222L46.4076 66.4368C47.3184 67.1722 47.4673 68.5089 46.7381 69.4207C46.0042 70.338 44.6601 70.4879 43.7425 69.7558L41.1682 67.6993C41.2754 66.3619 40.8792 65.0577 40.041 64.0097C39.5201 63.3586 38.874 62.8655 38.1645 62.5347C38.6845 61.8133 39.0146 60.9658 39.1171 60.0546C39.2746 58.6552 38.8793 57.2821 38.0025 56.1857C37.4814 55.5363 36.836 55.0443 36.1279 54.7143C36.6489 53.9907 36.979 53.1414 37.0806 52.2289C37.236 50.8327 36.8404 49.4622 35.9667 48.3696C34.4632 46.4899 31.9207 45.9185 29.8046 46.8166C29.6353 46.0388 29.2892 45.305 28.7782 44.6661C26.9692 42.4055 23.6564 42.0357 21.3921 43.8422L17.2084 47.1864C16.2623 45.9791 14.9762 44.9779 13.4556 44.2638L22.0617 29.0418L26.6439 30.3694C26.6648 30.6146 26.7045 30.8724 26.7709 31.1455C27.8801 35.7061 32.0792 37.8311 37.7296 36.6925C42.4906 35.7346 44.4506 37.1616 48.3542 40.0043C48.7592 40.2991 49.18 40.6055 49.6204 40.921C52.4278 42.935 55.4278 45.3024 57.4392 46.9069L62.5111 50.9604C62.9517 51.3119 63.229 51.8182 63.292 52.386C63.355 52.9533 63.1956 53.5077 62.8414 53.9489ZM62.7928 47.1855L59.3892 44.4654C57.35 42.8386 54.3076 40.4382 51.4412 38.3816C51.0068 38.0705 50.5926 37.7688 50.1939 37.4785C46.146 34.5308 43.2206 32.4011 37.1131 33.6294C35.2437 34.0061 30.79 34.4466 29.8076 30.4078C29.6692 29.8377 29.8098 29.6418 29.8696 29.5582C30.0785 29.2669 30.9192 28.558 34.2081 28.2668L41.1867 27.6422C42.3239 27.5385 42.8943 27.4863 44.63 28.0925L48.7187 29.5219C49.1732 29.6807 49.5367 29.8182 49.8575 29.9397C51.8262 30.6855 52.3479 30.6853 54.9343 29.9368L57.9487 29.0633L66.5432 44.2647C65.0221 44.9783 63.7373 45.9788 62.7928 47.1855Z" fill="url(#paint3_linear)"/>
<path d="M71.964 33.0624C72.8268 33.0624 73.5265 32.3605 73.5265 31.4976C73.5265 30.6346 72.8268 29.9351 71.964 29.9351C71.1012 29.9351 70.4015 30.6347 70.4015 31.4976V31.5019C70.4015 32.3649 71.1012 33.0624 71.964 33.0624Z" fill="url(#paint4_linear)"/>
</g>
<defs>
<linearGradient id="paint0_linear" x1="39.9991" y1="4.84473" x2="39.9991" y2="15.9291" gradientUnits="userSpaceOnUse">
<stop stop-color="#497AF0"/>
<stop offset="1" stop-color="#1449C8"/>
</linearGradient>
<linearGradient id="paint1_linear" x1="27.4922" y1="9.49463" x2="27.4922" y2="19.2255" gradientUnits="userSpaceOnUse">
<stop stop-color="#497AF0"/>
<stop offset="1" stop-color="#1449C8"/>
</linearGradient>
<linearGradient id="paint2_linear" x1="52.5086" y1="9.49463" x2="52.5086" y2="19.2253" gradientUnits="userSpaceOnUse">
<stop stop-color="#497AF0"/>
<stop offset="1" stop-color="#1449C8"/>
</linearGradient>
<linearGradient id="paint3_linear" x1="39.9999" y1="18.3281" x2="39.9999" y2="75.155" gradientUnits="userSpaceOnUse">
<stop stop-color="#497AF0"/>
<stop offset="1" stop-color="#1449C8"/>
</linearGradient>
<linearGradient id="paint4_linear" x1="71.964" y1="29.9351" x2="71.964" y2="33.0624" gradientUnits="userSpaceOnUse">
<stop stop-color="#497AF0"/>
<stop offset="1" stop-color="#1449C8"/>
</linearGradient>
<clipPath id="clip0">
<rect width="80" height="80" fill="white"/>
</clipPath>
</defs>
</svg>
