<svg width="125" height="51" viewBox="0 0 125 51" fill="none" xmlns="http://www.w3.org/2000/svg">
<path d="M64.8 31.16C67.56 31.16 69.18 29.38 69.18 20.48V19.22H74.02V31H76.48V17H66.88V19.76C66.88 28.14 65.56 29.04 64.14 29.04C63.84 29.04 63.52 28.98 63.34 28.92L63.1 30.94C63.48 31.04 64.26 31.16 64.8 31.16ZM86.773 31.24C91.073 31.24 94.113 27.94 94.113 24C94.113 20.02 91.113 16.76 86.813 16.76C82.513 16.76 79.473 20.06 79.473 24C79.473 27.98 82.473 31.24 86.773 31.24ZM86.813 28.98C84.033 28.98 82.053 26.72 82.053 24C82.053 21.24 83.993 19.02 86.773 19.02C89.553 19.02 91.533 21.28 91.533 24C91.533 26.76 89.593 28.98 86.813 28.98ZM97.0852 31H99.5252V19.22H106.505V17H97.0852V31ZM115.64 31.24C119.94 31.24 122.98 27.94 122.98 24C122.98 20.02 119.98 16.76 115.68 16.76C111.38 16.76 108.34 20.06 108.34 24C108.34 27.98 111.34 31.24 115.64 31.24ZM115.68 28.98C112.9 28.98 110.92 26.72 110.92 24C110.92 21.24 112.86 19.02 115.64 19.02C118.42 19.02 120.4 21.28 120.4 24C120.4 26.76 118.46 28.98 115.68 28.98Z" fill="#2A2A2A"/>
<rect width="51" height="51" rx="8" fill="#497AF0"/>
<rect x="4.07996" y="4.07999" width="42.84" height="42.84" rx="6" fill="white"/>
<rect x="13.2388" y="4.26294" width="34.68" height="34.68" rx="4" transform="rotate(15 13.2388 4.26294)" fill="#497AF0"/>
</svg>
