<svg width="74" height="74" viewBox="0 0 74 74" fill="none" xmlns="http://www.w3.org/2000/svg">
<g clip-path="url(#clip0)">
<path d="M11.7321 12.5171C18.8374 5.06943 29.7569 3.92619 37.8344 8.41344C38.5324 8.80107 38.7837 9.68127 38.3961 10.3791C38.0084 11.0771 37.1282 11.3282 36.4304 10.9407C29.0423 6.83589 19.7464 8.30504 13.83 14.5064C7.72558 20.983 7.03819 30.6371 11.7607 37.7944C18.2658 47.6749 32.3155 49.1638 40.7392 40.7385C46.4154 35.0644 48.0598 25.9137 43.9596 18.4673C43.5749 17.7678 43.83 16.8887 44.5294 16.504C45.2288 16.1195 46.1077 16.3744 46.4927 17.0737C46.5813 17.2349 46.7388 17.5352 46.8907 17.8432H46.8906C51.0947 26.413 49.182 36.3867 42.7833 42.7829C33.0783 52.4899 16.8675 50.8087 9.34678 39.3854C3.95332 31.2109 4.61499 20.0681 11.7321 12.5171Z" fill="url(#paint0_linear)"/>
<path d="M8.03046 8.03064C18.7389 -2.67636 36.1636 -2.67679 46.8724 8.03078C56.5023 17.662 57.539 32.7622 49.6969 43.5646L54.2015 48.0682C55.7808 47.3123 57.7779 47.5563 59.1379 48.9164L71.8801 61.66C74.7052 64.4833 74.7075 69.0554 71.8808 71.8802C69.0568 74.7061 64.4848 74.7073 61.6603 71.8805L48.9163 59.1381C47.5568 57.7784 47.312 55.7812 48.0681 54.2018L43.5641 49.6968C32.7593 57.5406 17.6603 56.5011 8.03046 46.8726C-2.67697 36.1639 -2.67697 18.7395 8.03046 8.03064ZM50.9606 57.0939L63.705 69.8366C65.3987 71.5316 68.1405 71.5332 69.8365 69.8359C71.5319 68.1418 71.5329 65.4 69.8362 63.7046L57.0938 50.9607C56.5306 50.3973 55.6135 50.397 55.0503 50.9607L50.9608 55.0502C50.3971 55.6136 50.3971 56.5305 50.9606 57.0939ZM49.9385 51.9837L51.9833 49.9388L47.867 45.8235C47.5441 46.1818 47.2124 46.533 46.8726 46.8726C46.5328 47.2124 46.1817 47.5443 45.8231 47.8673L49.9385 51.9837ZM10.0749 44.8284C19.6539 54.406 35.1705 54.4875 44.8285 44.8284C54.4749 35.183 54.4175 19.6657 44.8285 10.075C35.2477 0.495516 19.6573 0.493926 10.075 10.075C0.494766 19.6566 0.494766 35.247 10.0749 44.8284Z" fill="url(#paint1_linear)"/>
<path d="M40.7044 12.1562C40.7146 12.1432 40.7261 12.1317 40.7391 12.1187C41.3044 11.5548 42.2194 11.5548 42.7845 12.1187C43.3484 12.6839 43.3484 13.599 42.7845 14.1641C42.7715 14.1771 42.76 14.1886 42.747 14.2002C42.1788 14.7279 41.2912 14.7149 40.7391 14.1641C40.1885 13.6118 40.1755 12.7242 40.7044 12.1562Z" fill="url(#paint2_linear)"/>
</g>
<defs>
<linearGradient id="paint0_linear" x1="27.4536" y1="5.77252" x2="27.4536" y2="49.1221" gradientUnits="userSpaceOnUse">
<stop stop-color="#497AF0"/>
<stop offset="1" stop-color="#1449C8"/>
</linearGradient>
<linearGradient id="paint1_linear" x1="36.9999" y1="0.000244141" x2="36.9999" y2="74.0001" gradientUnits="userSpaceOnUse">
<stop stop-color="#497AF0"/>
<stop offset="1" stop-color="#1449C8"/>
</linearGradient>
<linearGradient id="paint2_linear" x1="41.7621" y1="11.6958" x2="41.7621" y2="14.5868" gradientUnits="userSpaceOnUse">
<stop stop-color="#497AF0"/>
<stop offset="1" stop-color="#1449C8"/>
</linearGradient>
<clipPath id="clip0">
<rect width="74" height="74" fill="white" transform="matrix(-1 0 0 1 74 0)"/>
</clipPath>
</defs>
</svg>
