<svg width="80" height="80" viewBox="0 0 80 80" fill="none" xmlns="http://www.w3.org/2000/svg">
<path d="M44.3508 4.54879L44.3833 4.69523L44.3508 4.54879C42.8769 4.87549 41.3738 5.20786 40 5.20786C38.6264 5.20786 37.1232 4.87534 35.6493 4.54878L35.6276 4.54398C33.2474 4.01655 30.7364 3.46015 28.377 4.22645C25.9122 5.02675 24.1842 6.99644 22.5451 8.86481L22.5317 8.88005C21.5256 10.0268 20.5891 11.0933 19.5491 11.8501L19.5491 11.8501C19.1842 12.1157 18.7664 12.3734 18.2705 12.6379C17.6626 12.962 17.4328 13.7176 17.7569 14.3254C18.0811 14.9333 18.8367 15.1629 19.4446 14.8388L19.4446 14.8388C20.041 14.5207 20.5558 14.2028 21.0171 13.8669C22.284 12.9449 23.3668 11.7107 24.4012 10.5318L24.4071 10.525C25.9351 8.78351 27.343 7.18492 29.1476 6.59886C29.9963 6.32341 30.9319 6.29529 31.9365 6.39955C32.9418 6.5039 34.0052 6.73937 35.1097 6.98421L35.1422 6.83776L35.1097 6.98421L35.1178 6.98599C36.6976 7.33608 38.3504 7.70233 40.0003 7.70233C41.6507 7.70233 43.3036 7.33591 44.884 6.9856L44.8909 6.98406C45.9956 6.7393 47.0591 6.50386 48.0645 6.39952C49.0691 6.29525 50.0046 6.32333 50.8529 6.59872C52.6575 7.18461 54.0656 8.78321 55.5936 10.5249L55.6005 10.5328C56.6346 11.7114 57.717 12.9451 58.9836 13.8668C60.2701 14.8031 61.7926 15.4618 63.2474 16.0912L63.2547 16.0943C65.3688 17.0089 67.3104 17.8536 68.4076 19.3612C68.9461 20.1011 69.2694 20.9967 69.4848 21.9968C69.7005 22.9977 69.8061 24.0928 69.9156 25.2304L69.9164 25.2379C70.069 26.8245 70.2287 28.4845 70.7259 30.0156C71.2002 31.4764 72.0288 32.8682 72.8201 34.1971L72.8253 34.206C74.0169 36.2086 75.1102 38.0528 75.1102 39.9998C75.1102 41.9469 74.0169 43.7912 72.8246 45.7936L72.8196 45.8019C72.0283 47.131 71.1997 48.5228 70.7253 49.9836C70.2286 51.5135 70.0688 53.1721 69.9161 54.7576L69.915 54.769C69.8056 55.9065 69.7 57.0016 69.4844 58.0026C69.2689 59.0027 68.9456 59.8983 68.407 60.6382C67.3098 62.1458 65.3682 62.9903 63.2542 63.9049L63.2468 63.9081C61.792 64.5374 60.2695 65.1961 58.983 66.1324C57.7162 67.0544 56.6333 68.2886 55.599 69.4675L55.593 69.4744C54.065 71.2159 52.6571 72.8145 50.8525 73.4004C50.0039 73.6759 49.0684 73.704 48.0638 73.5998C47.0585 73.4954 45.9951 73.2599 44.8903 73.015L44.8814 73.0131C43.3017 72.663 41.6494 72.2969 39.9999 72.2969C38.3503 72.2969 36.698 72.663 35.1183 73.0131L35.1093 73.015C34.0046 73.2599 32.9413 73.4954 31.936 73.5997C30.9314 73.704 29.9958 73.6758 29.1472 73.4004C27.3426 72.8145 25.9345 71.2159 24.4067 69.4742L24.2939 69.5732L24.4067 69.4742L24.3996 69.4662C23.3656 68.2877 22.2832 67.054 21.0167 66.1323C19.7306 65.1963 18.2086 64.5378 16.7544 63.9086L16.7455 63.9048C14.6315 62.9902 12.6898 62.1455 11.5926 60.6381C11.0542 59.8981 10.7308 59.0025 10.5154 58.0025C10.2998 57.0015 10.1942 55.9064 10.0846 54.7688L10.0839 54.7612C9.9312 53.1747 9.77147 51.5147 9.27443 49.9836C8.79989 48.5221 7.97075 47.1297 7.17909 45.8001L7.17518 45.7936C5.98321 43.7912 4.8899 41.9469 4.8899 39.9998C4.8899 38.0528 5.98321 36.2086 7.17547 34.2063L7.04659 34.1295L7.17547 34.2063L7.17993 34.1988C7.97142 32.8694 8.8003 31.4772 9.27472 30.0161C9.77147 28.4864 9.93121 26.8278 10.0839 25.2426L10.085 25.2307L9.93572 25.2163L10.085 25.2307C10.1945 24.0931 10.3001 22.998 10.5157 21.9971C10.7312 20.997 11.0545 20.1014 11.5931 19.3614C12.2133 18.5093 13.1485 17.7944 14.6481 17.0464C15.2646 16.7389 15.5151 15.9899 15.2075 15.3735C14.9 14.7571 14.151 14.5066 13.5347 14.8141C12.2897 15.4351 10.6979 16.3522 9.57596 17.8937C8.08835 19.9378 7.83966 22.5208 7.60381 24.9704L7.60175 24.9919L7.75106 25.0062L7.60175 24.9919C7.45301 26.5382 7.31369 27.9777 6.90202 29.2459C6.51495 30.4382 5.80073 31.639 5.03195 32.9302L5.02243 32.9462C3.74341 35.0941 2.39529 37.3581 2.39529 39.9998C2.39529 42.6416 3.74326 44.9055 5.02222 47.0535L5.03195 47.0698C5.80073 48.361 6.51495 49.5618 6.90202 50.7541C7.31369 52.0222 7.45286 53.4616 7.60175 55.0078L7.60366 55.0276C7.83941 57.4777 8.08803 60.0616 9.57596 62.1061C11.0789 64.1712 13.4691 65.2053 15.7361 66.1862L15.7552 66.1945L15.8148 66.0568L15.7552 66.1945C17.1714 66.8071 18.4889 67.3779 19.5491 68.1496L19.6374 68.0283L19.5491 68.1496C20.5891 68.9064 21.5255 69.9727 22.5317 71.1196L22.545 71.1348C24.1841 73.0032 25.9123 74.9731 28.3771 75.7732C29.2124 76.0445 30.065 76.1499 30.923 76.1499C32.4944 76.1499 34.0933 75.7956 35.6388 75.4532L35.6493 75.4509C37.1232 75.1242 38.6264 74.7918 40 74.7918C41.3738 74.7918 42.8769 75.1242 44.3508 75.4509L44.3727 75.4558C46.7529 75.9832 49.2636 76.5395 51.6231 75.7732C54.0881 74.9729 55.8162 73.0029 57.4553 71.1344L57.4682 71.1196C58.4744 69.9727 59.411 68.9064 60.451 68.1494C61.5112 67.3779 62.8287 66.8071 64.2448 66.1943L64.264 66.186C66.531 65.2052 68.9212 64.171 70.4241 62.1059C71.9117 60.062 72.1604 57.4789 72.3962 55.0295L72.3983 55.0078C72.5471 53.4615 72.6864 52.022 73.0981 50.754C73.4851 49.5617 74.1993 48.3608 74.9681 47.0697L74.9779 47.0533C76.2568 44.9053 77.6048 42.6414 77.6048 39.9998C77.6048 37.3582 76.2568 35.0944 74.9779 32.9464L74.9681 32.93C74.1993 31.6389 73.4851 30.4379 73.0981 29.2456C72.6864 27.9775 72.5471 26.5381 72.3983 24.9917L72.3962 24.9701C72.1604 22.5207 71.9117 19.9376 70.4241 17.8936C68.9212 15.8285 66.531 14.7944 64.264 13.8135L64.2448 13.8052C62.8287 13.1926 61.5113 12.6218 60.451 11.8501C59.411 11.0933 58.4746 10.0268 57.4684 8.8799L57.455 8.86469C55.8159 6.99631 54.0879 5.0266 51.623 4.2263C49.2636 3.46017 46.7529 4.01652 44.3727 4.54394L44.3508 4.54879Z" fill="url(#paint0_linear)" stroke="url(#paint1_linear)" stroke-width="0.3"/>
<path d="M25.6617 65.3828L25.7744 65.2838L25.6617 65.3828L25.674 65.3968C27.0201 66.9313 28.4446 68.5552 30.5049 69.2242L30.5512 69.0815L30.5049 69.2242C31.2095 69.453 31.9251 69.5416 32.642 69.5416C33.939 69.5416 35.2502 69.251 36.5145 68.9709L36.5242 68.9687C37.7631 68.6941 38.9128 68.44 39.9999 68.44C41.0871 68.44 42.2368 68.6941 43.4756 68.9687L43.4964 68.9733C45.4512 69.4066 47.521 69.8653 49.495 69.2242C51.5551 68.5552 52.9796 66.9313 54.3257 65.3968L54.338 65.3828C55.1464 64.4613 55.8961 63.608 56.7172 63.0102C57.555 62.4005 58.6095 61.9436 59.7475 61.4512L59.7669 61.4428C61.6279 60.6375 63.5978 59.7852 64.8538 58.0592C66.0976 56.3501 66.3026 54.221 66.4962 52.2098L66.4982 52.1889C66.6179 50.9461 66.7295 49.7936 67.0552 48.7908L66.9125 48.7445L67.0552 48.7908C67.3606 47.8501 67.9318 46.8893 68.5495 45.8519L68.5591 45.8358C69.6092 44.0722 70.7202 42.2063 70.7202 40C70.7202 37.7936 69.6091 35.9275 68.5589 34.1638L68.5495 34.148C67.9319 33.1107 67.3607 32.1499 67.0552 31.2091C66.7295 30.2064 66.6179 29.0538 66.4982 27.8111L66.4964 27.7919C66.3029 25.7802 66.098 23.6503 64.8538 21.9408C63.5975 20.2144 61.6269 19.3619 59.7655 18.5566L59.7475 18.5488C58.6095 18.0564 57.555 17.5994 56.7172 16.9898C55.8959 16.392 55.1464 15.5388 54.338 14.6172L54.3257 14.6032C52.9796 13.0687 51.5551 11.4448 49.495 10.7758L49.4486 10.9184L49.4949 10.7758C47.5205 10.1347 45.4503 10.5936 43.4953 11.0269L43.4756 11.0312C42.2368 11.3058 41.0871 11.5599 39.9999 11.5599C38.9128 11.5599 37.7631 11.3058 36.5242 11.0312L36.4918 11.1776L36.5242 11.0312L36.5049 11.0269C34.5498 10.5936 32.4792 10.1347 30.5049 10.7758C28.4448 11.4446 27.0203 13.0684 25.6744 14.6028L25.6617 14.6172C24.8533 15.5386 24.1038 16.392 23.2825 16.9898C22.4447 17.5994 21.3902 18.0565 20.2522 18.5488L20.3118 18.6865L20.2522 18.5488L20.2342 18.5566C18.3728 19.3619 16.4023 20.2144 15.1459 21.9408C13.9021 23.6499 13.6971 25.779 13.5035 27.7902L13.5015 27.8111C13.3819 29.0537 13.2703 30.2061 12.9447 31.2092C12.6393 32.1499 12.0679 33.1106 11.4504 34.1479L11.4408 34.164C10.3907 35.9276 9.27969 37.7935 9.27969 39.9998C9.27969 42.206 10.3905 44.0718 11.4406 45.8355L11.4504 45.8519C12.0679 46.8892 12.6392 47.8501 12.9447 48.7907C13.2703 49.7936 13.3819 50.946 13.5015 52.1888L13.5034 52.208C13.6969 54.2197 13.9018 56.3497 15.1459 58.0592C16.4023 59.7856 18.3728 60.6381 20.2343 61.4434L20.2522 61.4512C21.3902 61.9436 22.4447 62.4005 23.2825 63.0102C24.1038 63.608 24.8533 64.4612 25.6617 65.3828ZM44.0156 13.4667L43.9832 13.3202L44.0156 13.4667C44.8972 13.2712 45.7439 13.0837 46.5401 12.9994C47.3358 12.9151 48.0694 12.9355 48.7247 13.1483L48.7711 13.0057L48.7248 13.1483C49.4205 13.3742 50.0504 13.8033 50.6608 14.3536C51.2718 14.9045 51.8554 15.5695 52.463 16.2622L52.5758 16.1633L52.463 16.2622L52.4681 16.268C53.3136 17.2318 54.2011 18.2434 55.2497 19.0065C56.314 19.7811 57.5617 20.3209 58.7507 20.8352L58.7573 20.8381C59.5979 21.2018 60.405 21.5512 61.1119 21.9592C61.8182 22.3668 62.4145 22.8277 62.8372 23.4085C63.2536 23.9806 63.5056 24.6837 63.6748 25.4765C63.844 26.2699 63.9281 27.1419 64.0155 28.0499L64.0161 28.0564C64.1409 29.3531 64.2718 30.7134 64.6829 31.9795C65.0756 33.189 65.7547 34.3296 66.4016 35.416L66.4064 35.4241C67.3593 37.0245 68.226 38.4883 68.226 39.9998C68.226 41.5114 67.3593 42.9753 66.4064 44.5755L66.4027 44.5819C65.7554 45.6687 65.0758 46.81 64.6829 48.0202C64.2718 49.2863 64.1409 50.6466 64.0161 51.9433L64.0155 51.9498C63.9281 52.8578 63.844 53.7298 63.6748 54.5233C63.5056 55.316 63.2536 56.0191 62.8372 56.5912C62.4146 57.1719 61.8183 57.6328 61.112 58.0404C60.4052 58.4485 59.598 58.7979 58.7573 59.1616L58.7507 59.1644C57.5617 59.6788 56.314 60.2186 55.2497 60.9932C54.2018 61.7557 53.3149 62.7666 52.4699 63.7297L52.4631 63.7375L52.5758 63.8364L52.463 63.7375C51.8554 64.4302 51.2718 65.0951 50.6608 65.646C50.0504 66.1963 49.4205 66.6254 48.7247 66.8514C48.0695 67.0641 47.336 67.0845 46.5403 67.0002C45.744 66.9159 44.8973 66.7284 44.0156 66.533L44.0075 66.5312C42.7168 66.2452 41.3633 65.9453 40.0001 65.9453C38.6368 65.9453 37.2833 66.2452 35.9926 66.5312L35.9845 66.533C35.1029 66.7284 34.2562 66.9159 33.4599 67.0002C32.6642 67.0845 31.9306 67.0641 31.2754 66.8514L31.2291 66.994L31.2754 66.8514C30.5797 66.6255 29.9498 66.1964 29.3394 65.6461C28.7283 65.0951 28.1447 64.4302 27.5371 63.7375L27.5321 63.7317C26.6865 62.7679 25.7991 61.7563 24.7505 60.9932C23.6872 60.2193 22.4407 59.6799 21.2527 59.1659L21.2429 59.1616C20.4023 58.7979 19.5951 58.4485 18.8882 58.0405C18.182 57.6328 17.5856 57.172 17.1629 56.5912C16.7465 56.019 16.4945 55.3159 16.3254 54.5232C16.1561 53.7297 16.072 52.8577 15.9846 51.9498L15.9838 51.9415C15.8591 50.6453 15.7283 49.2858 15.3174 48.0203C14.9247 46.8108 14.2456 45.6702 13.5987 44.5837L13.5939 44.5757C12.641 42.9753 11.7743 41.5116 11.7743 39.9998C11.7743 38.4883 12.641 37.0245 13.5939 35.4241L13.5939 35.4241L13.5999 35.414C14.2463 34.3282 14.925 33.1881 15.3174 31.9795L15.3174 31.9795C15.7284 30.7134 15.8593 29.3531 15.984 28.0564L15.9846 28.0499C16.072 27.1419 16.1561 26.2699 16.3254 25.4765C16.4945 24.6837 16.7465 23.9806 17.1629 23.4084C17.5855 22.8278 18.1819 22.3669 18.8881 21.9593C19.595 21.5512 20.4022 21.2018 21.2429 20.8381L21.2494 20.8352C22.4384 20.3209 23.6862 19.7811 24.7505 19.0064C25.7991 18.2434 26.6865 17.2318 27.5321 16.2679L27.5371 16.2622C28.1447 15.5695 28.7283 14.9045 29.3394 14.3536C29.9498 13.8033 30.5797 13.3742 31.2754 13.1483C31.9305 12.9357 32.664 12.9154 33.4598 12.9996C34.256 13.0839 35.1028 13.2713 35.9846 13.4667L35.9925 13.4684C37.2833 13.7545 38.6368 14.0544 40.0001 14.0544C41.3634 14.0544 42.7169 13.7545 44.0076 13.4684L44.0156 13.4667Z" fill="url(#paint2_linear)" stroke="url(#paint3_linear)" stroke-width="0.3"/>
<path d="M26.6674 41.1134L26.5716 40.9981C25.0549 42.2587 24.8466 44.5177 26.107 46.0344L26.2224 45.9385L26.107 46.0344L31.5545 52.5888C32.6193 53.8701 34.1848 54.6371 35.8499 54.6935C35.8499 54.6935 35.8499 54.6935 35.8498 54.6935L26.6674 41.1134ZM26.6674 41.1134L26.5716 40.9981L28.0987 39.7289L28.0987 39.7289C29.6156 38.4684 31.8743 38.6767 33.135 40.1934L33.135 40.1934L35.8795 43.4956L26.6674 41.1134ZM38.5799 51.2663L38.471 51.1632C38.4801 51.1536 38.4892 51.1445 38.4966 51.137L38.497 51.1367L38.4976 51.1361L44.6497 45.0552C45.1398 44.5708 45.9296 44.5756 46.4137 45.0656C46.898 45.5555 46.8933 46.3453 46.4036 46.8294L40.264 52.8979L38.6031 51.2428C38.5953 51.2505 38.5876 51.2583 38.5799 51.2663ZM38.5799 51.2663C37.892 51.9885 36.9249 52.384 35.929 52.3494C34.9322 52.3158 33.9948 51.8565 33.3573 51.0894M38.5799 51.2663L38.4713 51.1629C37.8129 51.8541 36.8872 52.2326 35.9342 52.1995L35.9341 52.1995C34.9801 52.1673 34.0828 51.7277 33.4727 50.9936L33.3573 51.0894M33.3573 51.0894L33.4727 50.9935L28.0253 44.4391M33.3573 51.0894L28.0253 44.4391M28.0253 44.4391C28.0252 44.4391 28.0252 44.4391 28.0252 44.4391C27.6442 43.9805 27.7072 43.297 28.1658 42.9159L29.6931 41.6467C30.1516 41.2657 30.8352 41.3286 31.2164 41.7872L33.9608 45.0894C33.9608 45.0894 33.9608 45.0894 33.9608 45.0894C34.5006 45.7391 35.2943 46.1281 36.1387 46.1566C36.9716 46.1857 37.7847 45.8577 38.3661 45.2578L52.3823 31.5827L52.3828 31.5822C52.3934 31.5717 52.4036 31.5614 52.4135 31.5512L52.4144 31.5502C52.6139 31.3409 52.8822 31.2221 53.1714 31.215L53.1717 31.215C53.4602 31.2073 53.7341 31.3136 53.9437 31.5132L54.0471 31.4046L53.9437 31.5132L55.3816 32.883C55.8097 33.2908 55.8297 33.9688 55.4291 34.4012L47.9963 41.748C47.5065 42.2321 47.5019 43.0219 47.9862 43.5118C48.4702 44.0018 49.26 44.0066 49.7501 43.5221L57.1987 36.1598L57.1993 36.1592C57.2067 36.1518 57.2158 36.1427 57.225 36.133C58.5851 34.7051 58.5302 32.4371 57.1022 31.077L55.6645 29.7073L55.5612 29.8157L55.6644 29.7073C54.9731 29.0487 54.0643 28.6977 53.1109 28.7215C53.1109 28.7215 53.1109 28.7215 53.1108 28.7215L53.1146 28.8715M28.0253 44.4391L36.6104 43.4864L36.7148 43.5941M53.1146 28.8715C52.207 28.8935 51.3617 29.2649 50.732 29.9178M53.1146 28.8715C54.0281 28.8486 54.8984 29.1847 55.561 29.8159L56.9988 31.1856M53.1146 28.8715L56.9988 31.1856M50.732 29.9178L50.6272 29.8105L50.6256 29.8121C50.6251 29.8126 50.6245 29.8132 50.624 29.8137L50.732 29.9178ZM50.732 29.9178L36.7148 43.5941M36.7148 43.5941L36.6101 43.4867L36.6101 43.4867L35.7641 43.5915C35.9183 43.777 36.115 43.8105 36.2184 43.814C36.3208 43.8175 36.5201 43.7975 36.6866 43.6226C36.6958 43.613 36.7052 43.6035 36.7148 43.5941ZM56.9988 31.1856C58.3667 32.4886 58.4194 34.6616 57.1164 36.0296C57.1089 36.0375 57.1012 36.0452 57.0935 36.0529L57.0933 36.0531L49.6446 43.4154C49.2134 43.8416 48.5186 43.8374 48.0929 43.4064C47.6668 42.9754 47.6709 42.2805 48.1018 41.8546L55.5368 34.5056L56.9988 31.1856Z" fill="url(#paint4_linear)" stroke="url(#paint5_linear)" stroke-width="0.3"/>
<defs>
<linearGradient id="paint0_linear" x1="40" y1="3.99976" x2="40" y2="75.9999" gradientUnits="userSpaceOnUse">
<stop stop-color="#49F050"/>
<stop offset="1" stop-color="#14C826"/>
</linearGradient>
<linearGradient id="paint1_linear" x1="40" y1="3.99976" x2="40" y2="75.9999" gradientUnits="userSpaceOnUse">
<stop stop-color="#49F050"/>
<stop offset="1" stop-color="#14C826"/>
</linearGradient>
<linearGradient id="paint2_linear" x1="39.9999" y1="10.6084" x2="39.9999" y2="69.3916" gradientUnits="userSpaceOnUse">
<stop stop-color="#49F050"/>
<stop offset="1" stop-color="#14C826"/>
</linearGradient>
<linearGradient id="paint3_linear" x1="39.9999" y1="10.6084" x2="39.9999" y2="69.3916" gradientUnits="userSpaceOnUse">
<stop stop-color="#49F050"/>
<stop offset="1" stop-color="#14C826"/>
</linearGradient>
<linearGradient id="paint4_linear" x1="41.7464" y1="28.8704" x2="41.7464" y2="54.5468" gradientUnits="userSpaceOnUse">
<stop stop-color="#49F050"/>
<stop offset="1" stop-color="#14C826"/>
</linearGradient>
<linearGradient id="paint5_linear" x1="41.7464" y1="28.8704" x2="41.7464" y2="54.5468" gradientUnits="userSpaceOnUse">
<stop stop-color="#49F050"/>
<stop offset="1" stop-color="#14C826"/>
</linearGradient>
</defs>
</svg>
