<svg width="74" height="74" viewBox="0 0 74 74" fill="none" xmlns="http://www.w3.org/2000/svg">
<g clip-path="url(#clip0)">
<path d="M22.8539 5.35208L22.854 5.35207C29.0615 3.71381 33.2732 1.5068 35.2278 0.339498L35.3047 0.468281L35.2278 0.339494C36.3206 -0.313012 37.679 -0.313318 38.7722 0.339496C42.0686 2.30797 51.2487 6.94037 65.1187 7.33577C66.8463 7.38502 68.2812 8.71417 68.4561 10.429C68.9481 15.2527 69.7199 27.8773 66.2616 40.89C64.2985 48.2761 61.2599 54.684 57.2278 59.9325C52.3369 66.2989 45.9423 71.0073 38.2246 73.926M22.8539 5.35208L35.7753 73.926M22.8539 5.35208C22.196 5.52585 21.8034 6.20004 21.977 6.85798C22.1506 7.51601 22.8252 7.90822 23.4829 7.73496L23.4829 7.73495C29.9791 6.02035 34.4195 3.69265 36.4915 2.45545L36.4916 2.45541C36.8053 2.26782 37.1948 2.26781 37.5088 2.45542L37.5088 2.45545C40.9823 4.52955 50.6057 9.3876 65.0486 9.79928C65.5446 9.81336 65.9548 10.193 66.0044 10.679C66.4829 15.3695 67.233 27.6401 63.8799 40.2569C61.9993 47.3329 59.1028 53.4466 55.2736 58.4311C50.6665 64.428 44.638 68.8656 37.3526 71.6209C37.1252 71.7068 36.8751 71.7069 36.6473 71.6209M22.8539 5.35208L18.033 6.41054C18.7034 6.29191 19.3425 6.73957 19.4608 7.40962C19.5791 8.07983 19.1319 8.71918 18.4617 8.83751M38.2246 73.926L38.1725 73.7883L38.2247 73.9259C38.2246 73.9259 38.2246 73.926 38.2246 73.926ZM38.2246 73.926C37.8298 74.0755 37.4149 74.1501 37.0001 74.1501C36.5852 74.1501 36.1702 74.0755 35.7753 73.926M35.7753 73.926L35.8277 73.7874L35.7752 73.9259C35.7753 73.9259 35.7753 73.926 35.7753 73.926ZM18.4617 8.83751L18.4356 8.6898L18.4617 8.83751C18.4617 8.83751 18.4617 8.83751 18.4617 8.83751ZM18.4617 8.83751C15.3671 9.38413 12.1676 9.70759 8.95157 9.79928H8.95155C8.45542 9.81336 8.04524 10.193 7.99562 10.679C7.51712 15.3692 6.76687 27.6401 10.1202 40.2569C12.0009 47.3329 14.8974 53.4466 18.7266 58.4311C23.3336 64.428 29.3622 68.8656 36.6473 71.6209M36.6473 71.6209C36.6473 71.6209 36.6472 71.6209 36.6472 71.6209L36.595 71.7592L36.6473 71.6209Z" fill="url(#paint0_linear)" stroke="url(#paint1_linear)" stroke-width="0.3"/>
<path d="M35.9373 67.2401L35.9373 67.2401C36.2798 67.3696 36.6397 67.4344 36.9999 67.4344C37.3598 67.4344 37.7201 67.3696 38.0626 67.24C44.2449 64.9017 49.3682 61.0586 53.2877 55.8181C56.509 51.5109 58.9362 46.2379 60.5047 40.1476C63.3588 29.0648 62.5649 18.2521 62.2537 15.2013C62.1018 13.7124 60.8563 12.5585 59.3568 12.5158C48.3908 12.2032 41.14 8.54425 38.5383 6.99072C37.5895 6.42389 36.4104 6.42405 35.4616 6.99056L35.5304 7.10583L35.4616 6.99056C32.8598 8.54422 25.609 12.2032 14.643 12.5158C13.1434 12.5585 11.8979 13.7124 11.746 15.2013L11.8866 15.2157L11.746 15.2013C11.4349 18.2521 10.6409 29.0648 13.495 40.1476L13.6397 40.1103L13.495 40.1476C15.0635 46.2377 17.4908 51.5109 20.712 55.8181C24.6315 61.0585 29.7547 64.9017 35.9373 67.2401ZM37.2745 9.10648L37.2746 9.10652C40.0534 10.7659 47.7476 14.6503 59.2865 14.9793L59.2865 14.9793C59.555 14.9869 59.7755 15.1916 59.8019 15.4513C60.1026 18.3988 60.8696 28.8486 58.118 39.5328C54.8042 52.4006 47.7607 60.9371 37.1909 64.9346L37.1906 64.9347C37.0678 64.9815 36.9323 64.9814 36.809 64.9348C26.239 60.9369 19.1956 52.4006 15.8817 39.5328C13.1302 28.8488 13.8971 18.3989 14.1978 15.4513L14.1978 15.4513C14.2243 15.1917 14.4448 14.9869 14.7133 14.9793L14.7134 14.9793C26.2521 14.6503 33.9464 10.7659 36.7253 9.10637L36.6484 8.97759L36.7253 9.10636C36.8101 9.05572 36.905 9.03046 36.9999 9.03046C37.0947 9.03046 37.1896 9.05571 37.2745 9.10648Z" fill="url(#paint2_linear)" stroke="url(#paint3_linear)" stroke-width="0.3"/>
<path d="M50.3777 40.3468L50.3779 40.3468C51.0358 40.5187 51.7095 40.1257 51.8822 39.4674L51.8822 39.4673C52.2153 38.1965 52.3841 36.8806 52.3841 35.5557C52.3841 27.0727 45.483 20.1714 36.9998 20.1714C28.5167 20.1714 21.6155 27.0726 21.6155 35.5557C21.6155 44.0389 28.517 50.9399 37 50.9399C41.9863 50.9399 46.6843 48.5066 49.5674 44.4309C49.9604 43.8753 49.8286 43.1064 49.2731 42.7133C48.7176 42.3202 47.9485 42.452 47.5555 43.0077C45.1336 46.4314 41.1874 48.4755 37 48.4755C29.876 48.4755 24.0801 42.6796 24.0801 35.5557C24.0801 28.4318 29.876 22.6359 37 22.6359C44.1239 22.6359 49.9198 28.4318 49.9198 35.5557C49.9198 36.6701 49.778 37.7758 49.4983 38.8423C49.3257 39.5006 49.7195 40.1741 50.3777 40.3468Z" fill="url(#paint4_linear)" stroke="url(#paint5_linear)" stroke-width="0.3"/>
<path d="M35.8168 40.4944L35.8169 40.4945C35.8146 40.4968 37.1204 39.0825 38.6653 37.4092L39.7055 36.2826L42.3817 33.384L43.2637 32.4288L43.5108 32.1611L43.5759 32.0906L43.5925 32.0726L43.5968 32.068L43.5978 32.0668L43.5981 32.0665C43.5982 32.0665 43.5982 32.0664 43.7084 32.1682L43.5982 32.0664C43.8388 31.8059 43.911 31.5292 43.8803 31.2762C43.8492 31.0189 43.7099 30.7736 43.506 30.589C43.3022 30.4044 43.0422 30.288 42.7808 30.2783C42.5234 30.2687 42.2554 30.3618 42.0237 30.6128L42.0236 30.6128L38.9231 33.9708L36.8011 36.2691L36.1022 37.026L35.9064 37.2381L35.8548 37.2939L35.8416 37.3082L35.8383 37.3119L35.8374 37.3128L35.8372 37.313C35.8372 37.3131 35.8372 37.3131 35.7489 37.2316L35.8372 37.3131C35.3782 37.8102 34.561 37.8323 34.0755 37.3631L34.0737 37.3613C34.0738 37.3615 34.0617 37.3498 34.0392 37.328C33.9874 37.278 33.8805 37.1746 33.7396 37.0384L33.0035 36.327L32.2679 35.6161L32.0256 35.3818L31.9577 35.3162L31.9398 35.2989L31.9352 35.2945L31.9341 35.2934L31.9338 35.2931L31.9338 35.2931L35.8168 40.4944ZM35.8168 40.4944L35.8127 40.4988M35.8168 40.4944L35.8127 40.4988M35.8127 40.4988C35.4059 40.9394 34.7116 40.9587 34.2808 40.5423M35.8127 40.4988L34.2808 40.5423M30.34 36.9421L30.4442 36.8342C30.0193 36.4235 30.0078 35.7436 30.4182 35.319C30.6281 35.1019 30.908 34.9926 31.1891 34.9926C31.4577 34.9926 31.7259 35.0925 31.9337 35.293L30.34 36.9421ZM30.34 36.9421L30.4443 36.8343L30.4444 36.8344L30.4449 36.8349L30.447 36.8369L30.4552 36.8448L30.4873 36.8758L30.609 36.9934L31.0434 37.4133L32.3616 38.6874L34.2808 40.5423M30.34 36.9421L34.2808 40.5423M34.2808 40.5423L34.2808 40.5423M34.2808 40.5423L34.2808 40.5423M42.6701 27.8062L42.676 27.9561L42.67 27.8062C41.7265 27.844 40.8535 28.2472 40.2131 28.9408L34.8818 34.715L33.6463 33.521L33.6463 33.521C32.2443 32.1662 30.0015 32.2043 28.6463 33.6062L28.6463 33.6063C27.2914 35.0082 27.3295 37.2509 28.7316 38.6062L28.7316 38.6062L32.5682 42.3142C32.5682 42.3142 32.5682 42.3142 32.5682 42.3142C33.2308 42.9548 34.1038 43.3078 35.0255 43.3078C35.06 43.3078 35.0952 43.3073 35.1266 43.3063C36.0725 43.2793 36.9822 42.8653 37.6236 42.1704C37.6236 42.1703 37.6236 42.1703 37.6236 42.1703L45.4089 33.7381C46.7318 32.3055 46.6424 30.0642 45.2097 28.7413L45.1079 28.8515L45.2096 28.7413C44.5159 28.1008 43.6125 27.7691 42.6701 27.8062Z" fill="url(#paint6_linear)" stroke="url(#paint7_linear)" stroke-width="0.3"/>
</g>
<defs>
<linearGradient id="paint0_linear" x1="37" y1="0" x2="37" y2="74.0001" gradientUnits="userSpaceOnUse">
<stop stop-color="#497AF0"/>
<stop offset="1" stop-color="#1449C8"/>
</linearGradient>
<linearGradient id="paint1_linear" x1="37" y1="0" x2="37" y2="74.0001" gradientUnits="userSpaceOnUse">
<stop stop-color="#497AF0"/>
<stop offset="1" stop-color="#1449C8"/>
</linearGradient>
<linearGradient id="paint2_linear" x1="36.9999" y1="6.71564" x2="36.9999" y2="67.2844" gradientUnits="userSpaceOnUse">
<stop stop-color="#497AF0"/>
<stop offset="1" stop-color="#1449C8"/>
</linearGradient>
<linearGradient id="paint3_linear" x1="36.9999" y1="6.71564" x2="36.9999" y2="67.2844" gradientUnits="userSpaceOnUse">
<stop stop-color="#497AF0"/>
<stop offset="1" stop-color="#1449C8"/>
</linearGradient>
<linearGradient id="paint4_linear" x1="36.9998" y1="20.3214" x2="36.9998" y2="50.7899" gradientUnits="userSpaceOnUse">
<stop stop-color="#497AF0"/>
<stop offset="1" stop-color="#1449C8"/>
</linearGradient>
<linearGradient id="paint5_linear" x1="36.9998" y1="20.3214" x2="36.9998" y2="50.7899" gradientUnits="userSpaceOnUse">
<stop stop-color="#497AF0"/>
<stop offset="1" stop-color="#1449C8"/>
</linearGradient>
<linearGradient id="paint6_linear" x1="37" y1="27.9534" x2="37" y2="43.1578" gradientUnits="userSpaceOnUse">
<stop stop-color="#497AF0"/>
<stop offset="1" stop-color="#1449C8"/>
</linearGradient>
<linearGradient id="paint7_linear" x1="37" y1="27.9534" x2="37" y2="43.1578" gradientUnits="userSpaceOnUse">
<stop stop-color="#497AF0"/>
<stop offset="1" stop-color="#1449C8"/>
</linearGradient>
<clipPath id="clip0">
<rect width="74" height="74" fill="white"/>
</clipPath>
</defs>
</svg>
