<svg width="74" height="74" viewBox="0 0 74 74" fill="none" xmlns="http://www.w3.org/2000/svg">
<path d="M37 18.2109C36.2023 18.2109 35.5547 18.8585 35.5547 19.6562C35.5547 20.454 36.2023 21.1016 37 21.1016C37.7977 21.1016 38.4453 20.454 38.4453 19.6562C38.4453 18.8585 37.7977 18.2109 37 18.2109Z" fill="url(#paint0_linear)"/>
<path d="M13.0078 44.2266C13.8056 44.2266 14.4531 43.579 14.4531 42.7812C14.4531 41.9835 13.8056 41.3359 13.0078 41.3359C12.2101 41.3359 11.5625 41.9835 11.5625 42.7812C11.5625 43.579 12.2101 44.2266 13.0078 44.2266Z" fill="url(#paint1_linear)"/>
<path d="M48.5625 3.75781C35.5507 3.75781 24.8712 12.7289 24.0453 24.0289C11.6534 24.6505 0 33.586 0 45.6719C0 50.7226 1.9986 55.6163 5.63672 59.4938C6.35655 62.4612 5.48259 65.6065 3.31406 67.775C2.90079 68.1883 2.77715 68.8099 3.00072 69.3502C3.22429 69.8899 3.75104 70.2422 4.33594 70.2422C8.4579 70.2422 12.4303 68.6258 15.3819 65.7775C18.2572 66.7576 22.0088 67.3516 25.4375 67.3516C38.4476 67.3516 49.1259 58.3827 49.9542 47.085C52.9803 46.9506 56.1278 46.3917 58.6181 45.5432C61.5697 48.3914 65.5421 50.0078 69.6641 50.0078C70.249 50.0078 70.7757 49.6555 70.9993 49.1158C71.2229 48.5755 71.0992 47.9539 70.6859 47.5406C68.5174 45.3721 67.6434 42.2268 68.3633 39.2594C72.0014 35.3819 74 30.4882 74 25.4375C74 12.8797 61.4489 3.75781 48.5625 3.75781ZM25.4375 64.4609C22.0263 64.4609 18.1392 63.7914 15.5354 62.7554C14.9776 62.5329 14.3402 62.6791 13.9343 63.1223C12.1892 65.03 9.92015 66.3602 7.44788 66.9716C8.8102 64.3616 9.15797 61.2846 8.32918 58.3692C8.26369 58.1394 8.1423 57.9294 7.97575 57.7583C4.6967 54.381 2.89062 50.0885 2.89062 45.6719C2.89062 35.4869 13.2156 26.8828 25.4375 26.8828C36.9785 26.8828 47.1172 34.9082 47.1172 45.6719C47.1172 56.0324 37.3918 64.4609 25.4375 64.4609V64.4609ZM66.0242 37.5239C65.8577 37.6956 65.7363 37.9056 65.6708 38.1348C64.842 41.0503 65.1898 44.1272 66.5521 46.7372C64.0798 46.1264 61.8108 44.7957 60.0657 42.888C59.6598 42.4453 59.0224 42.2985 58.4646 42.521C56.208 43.4187 52.9888 44.0403 49.9497 44.1904C49.5274 38.7248 46.801 33.5877 42.1399 29.7734H60.9922C61.7905 29.7734 62.4375 29.1264 62.4375 28.3281C62.4375 27.5298 61.7905 26.8828 60.9922 26.8828H37.6995C34.4188 25.2128 30.7349 24.2389 26.9432 24.0345C27.7737 14.3272 37.153 6.64844 48.5625 6.64844C60.7844 6.64844 71.1094 15.2526 71.1094 25.4375C71.1094 29.8542 69.3033 34.1466 66.0242 37.5239V37.5239Z" fill="url(#paint2_linear)"/>
<path d="M37 41.3359H18.7891C17.9908 41.3359 17.3438 41.9829 17.3438 42.7812C17.3438 43.5796 17.9908 44.2266 18.7891 44.2266H37C37.7983 44.2266 38.4453 43.5796 38.4453 42.7812C38.4453 41.9829 37.7983 41.3359 37 41.3359Z" fill="url(#paint3_linear)"/>
<path d="M37 50.0078H13.0078C12.2095 50.0078 11.5625 50.6548 11.5625 51.4531C11.5625 52.2514 12.2095 52.8984 13.0078 52.8984H37C37.7983 52.8984 38.4453 52.2514 38.4453 51.4531C38.4453 50.6548 37.7983 50.0078 37 50.0078Z" fill="url(#paint4_linear)"/>
<path d="M60.9922 18.2109H42.7812C41.9829 18.2109 41.3359 18.8579 41.3359 19.6562C41.3359 20.4546 41.9829 21.1016 42.7812 21.1016H60.9922C61.7905 21.1016 62.4375 20.4546 62.4375 19.6562C62.4375 18.8579 61.7905 18.2109 60.9922 18.2109Z" fill="url(#paint5_linear)"/>
<defs>
<linearGradient id="paint0_linear" x1="37" y1="18.2109" x2="37" y2="21.1016" gradientUnits="userSpaceOnUse">
<stop stop-color="#497AF0"/>
<stop offset="1" stop-color="#1449C8"/>
</linearGradient>
<linearGradient id="paint1_linear" x1="13.0078" y1="41.3359" x2="13.0078" y2="44.2266" gradientUnits="userSpaceOnUse">
<stop stop-color="#497AF0"/>
<stop offset="1" stop-color="#1449C8"/>
</linearGradient>
<linearGradient id="paint2_linear" x1="37" y1="3.75781" x2="37" y2="70.2422" gradientUnits="userSpaceOnUse">
<stop stop-color="#497AF0"/>
<stop offset="1" stop-color="#1449C8"/>
</linearGradient>
<linearGradient id="paint3_linear" x1="27.8945" y1="41.3359" x2="27.8945" y2="44.2266" gradientUnits="userSpaceOnUse">
<stop stop-color="#497AF0"/>
<stop offset="1" stop-color="#1449C8"/>
</linearGradient>
<linearGradient id="paint4_linear" x1="25.0039" y1="50.0078" x2="25.0039" y2="52.8984" gradientUnits="userSpaceOnUse">
<stop stop-color="#497AF0"/>
<stop offset="1" stop-color="#1449C8"/>
</linearGradient>
<linearGradient id="paint5_linear" x1="51.8867" y1="18.2109" x2="51.8867" y2="21.1016" gradientUnits="userSpaceOnUse">
<stop stop-color="#497AF0"/>
<stop offset="1" stop-color="#1449C8"/>
</linearGradient>
</defs>
</svg>
