<svg width="30" height="30" viewBox="0 0 30 30" fill="none" xmlns="http://www.w3.org/2000/svg">
<path d="M27.7386 21.3961L23.5866 17.8655C23.5674 17.8493 23.5471 17.8344 23.526 17.8209C22.4367 17.1275 21.0381 17.2811 20.1249 18.1941L17.8611 20.4576C17.7043 20.6147 17.4704 20.661 17.2653 20.5764C14.7091 19.519 12.6092 17.9271 11.0239 15.8453C9.81501 14.2579 9.37922 12.9964 9.32176 12.8187C9.31492 12.7807 9.30402 12.7429 9.28864 12.7059C9.20384 12.5008 9.25019 12.2673 9.40742 12.1105L11.671 9.84635C12.5842 8.93311 12.7376 7.53452 12.0442 6.44526C12.0386 6.4365 12.0328 6.42795 12.0269 6.41941L9.02845 2.25269C8.08509 0.789161 6.03025 0.568061 4.79701 1.80109L4.3437 2.2544C4.34348 2.25483 4.34306 2.25526 4.34263 2.25547L2.72422 3.87388C0.794352 5.80396 0.478617 8.70411 1.81141 12.2614C2.95301 15.3085 5.23835 18.6433 8.24638 21.6514C11.3255 24.7305 14.7506 27.0582 17.8904 28.2055C20.9982 29.3409 24.304 29.4809 26.6438 27.1408L28.1701 25.6147C29.3978 24.3868 29.1836 22.3454 27.7386 21.3961ZM22.909 18.7247L27.0574 22.2523C27.0764 22.2685 27.0967 22.2835 27.1178 22.2969C28.0039 22.8611 28.1381 24.1001 27.3966 24.8414L27.2834 24.9548L20.208 19.6574L20.8982 18.9674C21.4376 18.4278 22.2596 18.3302 22.909 18.7247ZM8.11479 2.85361C8.12034 2.86237 8.12611 2.87113 8.13209 2.87946L11.1292 7.04468C11.5364 7.69645 11.4422 8.52851 10.8977 9.07303L10.2288 9.7421L5.44193 2.7028L5.57032 2.57441C6.3148 1.82993 7.55274 1.97071 8.11479 2.85361ZM18.2655 27.1782C15.2722 26.0845 11.9886 23.847 9.01969 20.8781C6.11955 17.9781 3.92329 14.7817 2.83531 11.8777C2.01863 9.69788 1.47068 6.67405 3.49754 4.64741L4.65473 3.49L9.4416 10.5293L8.63432 11.337C8.17503 11.7954 8.03062 12.4739 8.25984 13.078C8.43244 13.7864 9.22669 15.2568 10.028 16.3403C11.2072 17.9348 13.3475 20.1391 16.8473 21.5871C17.4623 21.8415 18.1636 21.7018 18.6344 21.2312L19.4268 20.4386L26.5022 25.7361L25.8705 26.3675C23.6977 28.5405 20.5357 28.0077 18.2655 27.1782Z" fill="#497AF0"/>
</svg>
