<svg width="74" height="74" viewBox="0 0 74 74" fill="none" xmlns="http://www.w3.org/2000/svg">
<path d="M51.4531 62.0039C50.6553 62.0039 50.0078 62.6514 50.0078 63.4492C50.0078 64.247 50.6553 64.8945 51.4531 64.8945C52.2509 64.8945 52.8984 64.247 52.8984 63.4492C52.8984 62.6514 52.2509 62.0039 51.4531 62.0039Z" fill="url(#paint0_linear)"/>
<path d="M22.5469 62.0039C21.7491 62.0039 21.1016 62.6514 21.1016 63.4492C21.1016 64.247 21.7491 64.8945 22.5469 64.8945C23.3447 64.8945 23.9922 64.247 23.9922 63.4492C23.9922 62.6514 23.3447 62.0039 22.5469 62.0039Z" fill="url(#paint1_linear)"/>
<path d="M64.6987 54.5186C63.0717 52.0003 60.8359 49.9993 58.2169 48.707C57.9961 48.5019 57.7121 48.3645 57.3962 48.3294C55.5019 47.5252 53.505 47.1172 51.4531 47.1172H47.1172V43.304C49.6264 41.1511 51.4303 38.2995 52.305 35.1211H52.8984C56.0862 35.1211 58.6797 32.5276 58.6797 29.3398C58.6797 27.8292 58.0966 26.4527 57.1445 25.4216C57.2354 25.3444 57.3241 25.2641 57.4094 25.1789C58.2286 24.3597 58.6797 23.271 58.6797 22.1133C58.6797 20.2108 57.4474 18.5916 55.7395 18.0092C55.2289 11.363 50.5644 5.68355 44.1422 3.9035C43.7616 1.91591 42.1213 0 39.8906 0H34.1094C31.8787 0 30.2384 1.91591 29.8578 3.9035C23.4362 5.6834 18.7722 11.3619 18.2607 18.0071C17.6389 18.218 17.0687 18.5697 16.5906 19.0476C15.7714 19.8668 15.3203 20.9556 15.3203 22.1133C15.3203 23.4376 15.9178 24.6245 16.8567 25.4204C15.9039 26.4515 15.3203 27.8286 15.3203 29.3398C15.3203 32.5276 17.9138 35.1211 21.1016 35.1211H21.691C22.4211 37.7743 23.8056 40.21 25.737 42.2221C26.0999 42.6004 26.4846 42.9609 26.8828 43.3029V47.1172H22.5469C20.4948 47.1172 18.498 47.5252 16.6037 48.3292C16.2881 48.3645 16.0039 48.5018 15.7832 48.7069C13.1639 49.9993 10.9283 52.0003 9.30131 54.5185C7.56578 57.2049 6.64844 60.2931 6.64844 63.4492V72.5547C6.64844 73.3528 7.2955 74 8.09375 74H65.9062C66.7045 74 67.3516 73.3528 67.3516 72.5547V63.4492C67.3516 60.2931 66.4342 57.2049 64.6987 54.5186ZM15.3203 71.1094H9.53906V63.4492C9.53906 59.053 11.7911 54.8393 15.3203 52.3379V71.1094ZM52.8984 32.2305H52.8325C52.8756 31.7496 52.8984 31.267 52.8984 30.7852V26.4492C54.4923 26.4492 55.7891 27.746 55.7891 29.3398C55.7891 30.9337 54.4923 32.2305 52.8984 32.2305ZM29.7734 6.95759V13.4414C29.7734 14.2397 30.4205 14.8867 31.2188 14.8867C32.017 14.8867 32.6641 14.2397 32.6641 13.4414V5.0677C32.6641 5.06394 32.6641 5.06018 32.6641 5.05643V4.76953C32.6641 3.87402 33.4205 2.89062 34.1094 2.89062H39.8906C40.5795 2.89062 41.3359 3.87402 41.3359 4.76953V5.05643C41.3359 5.06018 41.3359 5.06394 41.3359 5.0677V13.4414C41.3359 14.2397 41.983 14.8867 42.7812 14.8867C43.5795 14.8867 44.2266 14.2397 44.2266 13.4414V6.95759C48.8935 8.60915 52.2625 12.8324 52.8176 17.7773H21.1824C21.7375 12.8324 25.1065 8.60915 29.7734 6.95759ZM21.1016 32.2305C19.5077 32.2305 18.2109 30.9337 18.2109 29.3398C18.2109 27.746 19.5077 26.4492 21.1016 26.4492V30.7852C21.1016 31.267 21.1244 31.7498 21.1675 32.2305H21.1016ZM21.1016 23.5586H19.6562C18.8593 23.5586 18.2109 22.9102 18.2109 22.1133C18.2109 21.7277 18.3614 21.3648 18.6346 21.0917C18.9079 20.8184 19.2706 20.668 19.6562 20.668H54.3438C55.1407 20.668 55.7891 21.3163 55.7891 22.1133C55.7891 22.4989 55.6386 22.8618 55.3654 23.1348C55.0923 23.4081 54.7294 23.5586 54.3438 23.5586H52.8984H51.4531H22.5469H21.1016ZM24.2548 33.4132C24.2519 33.3974 24.2492 33.3818 24.2457 33.3663C24.0779 32.5181 23.9922 31.6499 23.9922 30.7852V26.4492H50.0078V30.7852C50.0078 31.6492 49.9221 32.5168 49.7543 33.3658C49.7508 33.3814 49.7481 33.3971 49.7452 33.4129C49.0993 36.6369 47.3117 39.5229 44.7087 41.5415C42.4474 43.2981 39.7818 44.2266 37 44.2266C34.2182 44.2266 31.5526 43.2981 29.2891 41.5399C28.771 41.1389 28.2778 40.6954 27.8228 40.2209C25.9996 38.3214 24.7664 35.9683 24.2548 33.4132ZM35.5547 71.1094H23.9922V67.7852C23.9922 66.9869 23.3451 66.3398 22.5469 66.3398C21.7486 66.3398 21.1016 66.9869 21.1016 67.7852V71.1094H18.2109V50.799C19.1489 50.4453 20.1153 50.2096 21.1016 50.0934V59.1133C21.1016 59.9115 21.7486 60.5586 22.5469 60.5586C23.3451 60.5586 23.9922 59.9115 23.9922 59.1133V50.0078H27.7088L35.5547 58.2461V71.1094ZM29.7734 47.9844V45.2923C32.0037 46.4912 34.4602 47.1172 37 47.1172C39.54 47.1172 41.9966 46.4911 44.2266 45.2925V47.9844L37 55.5723L29.7734 47.9844ZM55.7891 71.1094H52.8984V67.7852C52.8984 66.9869 52.2514 66.3398 51.4531 66.3398C50.6549 66.3398 50.0078 66.9869 50.0078 67.7852V71.1094H38.4453V58.2461L46.2912 50.0078H50.0078V59.1133C50.0078 59.9115 50.6549 60.5586 51.4531 60.5586C52.2514 60.5586 52.8984 59.9115 52.8984 59.1133V50.0934C53.8847 50.2096 54.8509 50.4455 55.7891 50.7991V71.1094ZM64.4609 71.1094H58.6797V52.3378C62.2089 54.8392 64.4609 59.0529 64.4609 63.4492V71.1094Z" fill="url(#paint2_linear)"/>
<defs>
<linearGradient id="paint0_linear" x1="51.4531" y1="62.0039" x2="51.4531" y2="64.8945" gradientUnits="userSpaceOnUse">
<stop stop-color="#497AF0"/>
<stop offset="1" stop-color="#1449C8"/>
</linearGradient>
<linearGradient id="paint1_linear" x1="22.5469" y1="62.0039" x2="22.5469" y2="64.8945" gradientUnits="userSpaceOnUse">
<stop stop-color="#497AF0"/>
<stop offset="1" stop-color="#1449C8"/>
</linearGradient>
<linearGradient id="paint2_linear" x1="37" y1="0" x2="37" y2="74" gradientUnits="userSpaceOnUse">
<stop stop-color="#497AF0"/>
<stop offset="1" stop-color="#1449C8"/>
</linearGradient>
</defs>
</svg>
