<svg width="80" height="80" viewBox="0 0 80 80" fill="none" xmlns="http://www.w3.org/2000/svg">
<g clip-path="url(#clip0)">
<path d="M63.3511 63.7804C62.6705 63.2601 61.6979 63.3906 61.1779 64.0707C60.6579 64.751 60.788 65.7239 61.4683 66.2439L64.1175 68.2687C64.3977 68.4828 64.7288 68.5873 65.0582 68.5873C65.4822 68.5873 65.9033 68.414 66.2079 68.0777L71.2718 62.4865C71.8464 61.8518 71.7981 60.8714 71.1634 60.2967C70.5289 59.7221 69.5483 59.7706 68.9736 60.4051L64.8672 64.9394L63.3511 63.7804Z" fill="url(#paint0_linear)"/>
<path d="M79.8113 55.505C79.7937 54.7145 79.184 54.0643 78.3966 53.9955C74.7086 53.6732 70.1703 51.1959 66.8343 47.6846C66.5416 47.3768 66.1356 47.2024 65.7108 47.2022C65.711 47.2022 65.7107 47.2022 65.7108 47.2022C65.2863 47.2022 64.8799 47.3763 64.5872 47.6839C63.0898 49.2579 61.3516 50.6232 59.5579 51.6806C56.4105 48.1671 52.5367 45.5784 47.9964 43.9489C47.9569 43.933 47.9169 43.9187 47.876 43.906C47.5223 43.7807 47.1645 43.6612 46.8029 43.5474C50.6426 39.7179 53.2254 34.6854 53.2254 30.1709V27.7352C55.0404 26.9449 56.3134 25.1332 56.3134 23.029C56.3134 20.8433 54.9376 18.9738 53.0071 18.2382C52.2102 10.5022 46.7599 3.99909 39.2732 1.84762C39.0519 0.793897 38.1157 0 36.9974 0H31.3796C30.3009 0 29.3942 0.739172 29.1325 1.73708C25.4498 2.71918 22.086 4.81547 19.564 7.72999C17.0042 10.6882 15.4124 14.3825 15.0081 18.239C13.0766 18.9751 11.7004 20.8441 11.7004 23.0292C11.7004 25.1342 12.9752 26.9463 14.7928 27.7361V30.171C14.7928 34.6814 17.376 39.7158 21.2156 43.5479C20.8644 43.6583 20.5167 43.7738 20.173 43.895C20.1054 43.9142 20.0397 43.9379 19.9756 43.966C14.8938 45.7992 10.6512 48.8337 7.32864 53.0243C4.13321 57.0547 1.86159 62.0318 0.577033 67.8187C0.119856 69.8868 -0.223995 72.4856 1.18614 74.2415C2.56356 75.9566 5.02819 76.1764 7.02169 76.1764H17.1628C18.019 76.1764 18.7131 75.4822 18.7131 74.6261C18.7131 73.7701 18.019 73.0758 17.1628 73.0758H7.02169C5.16709 73.0758 4.0171 72.8148 3.60364 72.2999C3.16568 71.7545 3.16599 70.472 3.6041 68.4892C5.2153 61.232 9.15487 52.3513 18.6467 47.8674C18.3548 53.1047 21.1926 56.528 22.9964 58.7007C23.2725 59.0334 23.6749 59.2356 24.1067 59.2587C24.5381 59.2826 24.9601 59.1235 25.27 58.8221L34.007 50.3254L42.7483 58.8224C43.0383 59.1043 43.4262 59.261 43.8288 59.261C43.8566 59.261 43.8843 59.2602 43.9124 59.2587C44.3441 59.2354 44.7467 59.0328 45.0227 58.6997C46.8239 56.5251 49.6575 53.0998 49.3683 47.8735C52.122 49.1797 54.555 50.9267 56.6473 53.103C55.3979 53.5865 54.1695 53.8955 53.024 53.9957C52.237 54.0643 51.6276 54.7141 51.6092 55.5039C51.4794 61.0466 52.4032 65.0177 54.9026 69.6655C54.9237 69.7049 55.7683 71.2189 57.0843 73.0761H31.1979C30.3417 73.0761 29.6477 73.7704 29.6477 74.6264C29.6477 75.4825 30.3417 76.1767 31.1979 76.1767H59.5464C61.4155 78.2423 63.6198 80.0003 65.7102 80.0003C70.7535 80.0003 76.4623 69.7689 76.5172 69.6666C79.0125 65.018 79.936 61.0476 79.8113 55.505ZM49.8426 17.9035H41.3071C39.6945 13.691 39.3894 10.2173 39.3347 5.11793C44.9264 7.09561 48.9914 12.0295 49.8426 17.9035ZM32.154 3.10055H36.2228C36.2326 9.10136 36.3847 13.1656 38.0092 17.9035H30.3707C31.9925 13.1654 32.1444 9.10074 32.154 3.10055ZM29.0437 4.99561C28.9925 10.1621 28.6961 13.6572 27.0736 17.9037H18.1747C19.059 11.9532 23.3365 6.88555 29.0437 4.99561ZM16.8304 21.0041H27.2015C27.2928 21.0782 27.3812 21.0876 27.4553 21.0041H51.1877C52.3043 21.0041 53.2128 21.9124 53.2128 23.0292C53.2128 24.1483 52.3045 25.0588 51.1877 25.0588H16.8304C15.7115 25.0588 14.801 24.1483 14.801 23.0292C14.801 21.9125 15.7113 21.0041 16.8304 21.0041ZM17.8933 30.171V28.1592H50.1246V30.171C50.1246 36.0816 44.3985 43.3916 37.8706 45.8148C35.0143 46.8763 32.9863 46.8754 30.1233 45.8114C23.6082 43.3783 17.8933 36.0695 17.8933 30.171ZM24.3273 55.4139C22.7227 53.3191 21.1777 50.5689 21.9203 46.5768C22.6041 46.356 23.3108 46.1547 24.0434 45.9765C25.6067 47.1234 27.2928 48.0641 29.0407 48.717C29.6033 48.9259 30.1447 49.0982 30.6743 49.2414L24.3273 55.4139ZM43.6893 55.4129L37.3384 49.2396C37.8612 49.0977 38.3954 48.9277 38.9501 48.7215C40.7067 48.0694 42.401 47.1268 43.9716 45.9762C44.6953 46.1523 45.403 46.3519 46.0935 46.5754C46.8377 50.562 45.2934 53.3149 43.6893 55.4129ZM73.7848 68.201C71.9515 71.6226 67.658 76.8994 65.7102 76.8994C63.7624 76.8994 59.4689 71.6226 57.6345 68.1988C55.5858 64.3895 54.7451 61.2128 54.6995 56.8875C56.3719 56.5693 58.1131 55.9451 59.8252 55.0736C59.8853 55.0474 59.9439 55.0165 60.0015 54.9821C62.0007 53.9429 63.9559 52.5677 65.7096 50.9332C69.0114 54.0136 73.0311 56.186 76.7196 56.8877C76.6708 61.2136 75.8302 64.3909 73.7848 68.201Z" fill="url(#paint1_linear)"/>
<path d="M24.1803 73.0758C23.3241 73.0758 22.63 73.77 22.63 74.6261C22.63 75.4821 23.3241 76.1764 24.1803 76.1764H24.1891C25.0453 76.1764 25.7349 75.4821 25.7349 74.6261C25.7349 73.77 25.0365 73.0758 24.1803 73.0758Z" fill="url(#paint2_linear)"/>
</g>
<defs>
<linearGradient id="paint0_linear" x1="66.2661" y1="59.8956" x2="66.2661" y2="68.5873" gradientUnits="userSpaceOnUse">
<stop stop-color="#497AF0"/>
<stop offset="1" stop-color="#1449C8"/>
</linearGradient>
<linearGradient id="paint1_linear" x1="40" y1="0" x2="40" y2="80.0003" gradientUnits="userSpaceOnUse">
<stop stop-color="#497AF0"/>
<stop offset="1" stop-color="#1449C8"/>
</linearGradient>
<linearGradient id="paint2_linear" x1="24.1825" y1="73.0758" x2="24.1825" y2="76.1764" gradientUnits="userSpaceOnUse">
<stop stop-color="#497AF0"/>
<stop offset="1" stop-color="#1449C8"/>
</linearGradient>
<clipPath id="clip0">
<rect width="80" height="80" fill="white"/>
</clipPath>
</defs>
</svg>
